<svg width="18" height="18" viewBox="0 0 18 18" fill="none" xmlns="http://www.w3.org/2000/svg">
<path d="M9.4624 0.0116899C14.218 0.2526 18 4.18462 18 8.99999C17.9997 13.9703 13.9703 17.9997 8.99999 18C4.02953 18 0.000232761 13.9704 0 8.99999C0 4.02939 4.02939 0 8.99999 0L9.4624 0.0116899ZM6.04763 9.79751C6.13348 11.6464 6.51308 13.2763 7.05946 14.4658C7.67408 15.8034 8.36712 16.3358 8.89609 16.3971L8.99999 16.4037C9.53978 16.4034 10.2838 15.8923 10.9392 14.4658C11.4857 13.2763 11.8652 11.6465 11.9511 9.79751H6.04763ZM1.63919 9.79751C1.92242 12.4402 3.59581 14.665 5.91384 15.7296C5.80518 15.5359 5.70353 15.3359 5.60989 15.132C4.95437 13.7052 4.53673 11.8404 4.44998 9.79751H1.63919ZM13.5487 9.79751C13.462 11.8402 13.0455 13.7052 12.3901 15.132C12.2963 15.3362 12.1924 15.5357 12.0836 15.7296C14.4023 14.6653 16.0775 12.4408 16.3608 9.79751H13.5487ZM5.91253 2.26916C3.5951 3.33384 1.92251 5.55906 1.63919 8.20118H4.44998C4.53678 6.15834 4.95436 4.29342 5.60989 2.86664C5.70347 2.66297 5.80395 2.46273 5.91253 2.26916ZM8.99999 1.59503C8.46017 1.59503 7.71505 2.1061 7.05946 3.53297C6.51303 4.72232 6.13354 6.35227 6.04763 8.20118H11.9511C11.8652 6.35219 11.4857 4.72233 10.9392 3.53297C10.2838 2.10648 9.53978 1.5953 8.99999 1.59503ZM12.0849 2.26916C12.1936 2.46299 12.2964 2.66268 12.3901 2.86664C13.0455 4.29338 13.462 6.15846 13.5487 8.20118H16.3608C16.0774 5.55847 14.4031 3.3336 12.0849 2.26916Z" fill="white"/>
</svg>
