<svg width="16" height="16" viewBox="0 0 16 16" fill="none" xmlns="http://www.w3.org/2000/svg">
<path d="M8.00004 14.1667C11.4058 14.1667 14.1667 11.4058 14.1667 8.00001C14.1667 4.59425 11.4058 1.83334 8.00004 1.83334M8.00004 14.1667C4.59428 14.1667 1.83337 11.4058 1.83337 8.00001C1.83337 4.59425 4.59428 1.83334 8.00004 1.83334M8.00004 14.1667C6.43523 14.1667 5.16671 11.4058 5.16671 8.00001C5.16671 4.59425 6.43523 1.83334 8.00004 1.83334M8.00004 14.1667C9.56485 14.1667 10.8334 11.4058 10.8334 8.00001C10.8334 4.59425 9.56485 1.83334 8.00004 1.83334M14 8.00001H2.00004" stroke="#8E929B" stroke-width="1.2" stroke-linecap="square"/>
</svg>
