<svg width="26" height="26" viewBox="0 0 26 26" fill="none" xmlns="http://www.w3.org/2000/svg">
<path fill-rule="evenodd" clip-rule="evenodd" d="M21.7843 13.9183C21.7647 14.1938 21.9562 14.4447 22.23 14.4804L22.8189 14.5572C23.0927 14.5929 23.3449 14.4 23.3671 14.1247C23.3889 13.8542 23.3999 13.581 23.3999 13.3055C23.3999 13.03 23.3889 12.7567 23.3671 12.4862C23.3449 12.211 23.0927 12.018 22.8189 12.0537L22.23 12.1305C21.9562 12.1663 21.7647 12.4172 21.7843 12.6926C21.7987 12.895 21.8061 13.0994 21.8061 13.3055C21.8061 13.5116 21.7987 13.7159 21.7843 13.9183ZM21.6229 9.86001C21.3678 9.96579 21.0766 9.84398 20.956 9.5956C20.7767 9.22655 20.5715 8.87242 20.3427 8.53558C20.1876 8.30714 20.2273 7.99402 20.4463 7.82576L20.9172 7.4639C21.1361 7.29564 21.4512 7.33606 21.6084 7.56306C21.919 8.01143 22.1944 8.48644 22.4304 8.98409C22.5487 9.23359 22.4266 9.52675 22.1715 9.63252L21.6229 9.86001ZM18.7852 6.16462C18.6169 6.38357 18.3038 6.42334 18.0753 6.2682C17.7385 6.03944 17.3844 5.83424 17.0153 5.65495C16.7669 5.53428 16.6451 5.24309 16.7509 4.98801L16.9784 4.43944C17.0842 4.18436 17.3773 4.06218 17.6268 4.18052C18.1245 4.41654 18.5995 4.69192 19.0479 5.00251C19.2749 5.15976 19.3153 5.47477 19.147 5.69373L18.7852 6.16462ZM14.4804 4.38089C14.4447 4.65471 14.1937 4.84622 13.9183 4.82659C13.7159 4.81217 13.5115 4.80484 13.3054 4.80484C13.0994 4.80484 12.895 4.81217 12.6926 4.82659C12.4171 4.84622 12.1662 4.65471 12.1305 4.38089L12.0537 3.79201C12.018 3.51819 12.211 3.26597 12.4862 3.24382C12.7567 3.22205 13.0299 3.21097 13.3054 3.21097C13.5809 3.21097 13.8542 3.22205 14.1247 3.24382C14.3999 3.26597 14.5929 3.51819 14.5572 3.79201L14.4804 4.38089ZM9.85997 4.98801C9.96575 5.24309 9.84395 5.53428 9.59557 5.65495C9.22652 5.83424 8.87239 6.03945 8.53555 6.2682C8.30711 6.42334 7.99399 6.38357 7.82573 6.16462L7.46387 5.69373C7.2956 5.47477 7.33602 5.15976 7.56302 5.00251C8.0114 4.69192 8.48641 4.41654 8.98405 4.18052C9.23356 4.06218 9.52671 4.18436 9.63249 4.43944L9.85997 4.98801ZM6.16458 7.82576C6.38354 7.99402 6.42331 8.30714 6.26817 8.53558C6.03941 8.87242 5.8342 9.22655 5.65491 9.5956C5.53424 9.84398 5.24306 9.96579 4.98798 9.86001L4.4394 9.63252C4.18432 9.52675 4.06215 9.23359 4.18048 8.98409C4.41651 8.48644 4.69188 8.01143 5.00248 7.56306C5.15972 7.33606 5.47473 7.29564 5.69369 7.4639L6.16458 7.82576ZM4.82656 12.6926C4.84618 12.4172 4.65468 12.1663 4.38086 12.1305L3.79198 12.0537C3.51815 12.018 3.26594 12.211 3.24378 12.4862C3.22201 12.7567 3.21094 13.03 3.21094 13.3055C3.21094 13.581 3.22201 13.8542 3.24378 14.1247C3.26594 14.4 3.51815 14.5929 3.79198 14.5572L4.38086 14.4804C4.65468 14.4447 4.84618 14.1938 4.82656 13.9183C4.81214 13.7159 4.80481 13.5116 4.80481 13.3055C4.80481 13.0994 4.81214 12.895 4.82656 12.6926ZM4.98798 16.7509C5.24306 16.6452 5.53424 16.767 5.65491 17.0153C5.8342 17.3844 6.03941 17.7385 6.26817 18.0754C6.42331 18.3038 6.38354 18.6169 6.16458 18.7852L5.69369 19.147C5.47473 19.3153 5.15972 19.2749 5.00248 19.0479C4.69188 18.5995 4.41651 18.1245 4.18048 17.6269C4.06215 17.3774 4.18432 17.0842 4.4394 16.9784L4.98798 16.7509ZM7.82573 20.4463C7.99399 20.2274 8.3071 20.1876 8.53555 20.3427C8.87239 20.5715 9.22652 20.7767 9.59557 20.956C9.84395 21.0767 9.96575 21.3679 9.85997 21.6229L9.63249 22.1715C9.52671 22.4266 9.23356 22.5488 8.98405 22.4304C8.48641 22.1944 8.0114 21.919 7.56302 21.6084C7.33602 21.4512 7.2956 21.1362 7.46387 20.9172L7.82573 20.4463ZM12.1305 22.2301C12.1662 21.9562 12.4171 21.7647 12.6926 21.7844C12.895 21.7988 13.0994 21.8061 13.3054 21.8061C13.5115 21.8061 13.7159 21.7988 13.9183 21.7844C14.1937 21.7647 14.4447 21.9562 14.4804 22.2301L14.5572 22.8189C14.5929 23.0928 14.3999 23.345 14.1247 23.3671C13.8542 23.3889 13.581 23.4 13.3054 23.4C13.0299 23.4 12.7567 23.3889 12.4862 23.3671C12.211 23.345 12.018 23.0928 12.0537 22.8189L12.1305 22.2301ZM16.7509 21.6229C16.6451 21.3679 16.7669 21.0767 17.0153 20.956C17.3844 20.7767 17.7385 20.5715 18.0753 20.3427C18.3038 20.1876 18.6169 20.2274 18.7852 20.4463L19.147 20.9172C19.3153 21.1362 19.2749 21.4512 19.0479 21.6084C18.5995 21.919 18.1245 22.1944 17.6268 22.4304C17.3773 22.5488 17.0842 22.4266 16.9784 22.1715L16.7509 21.6229ZM20.4463 18.7852C20.2273 18.6169 20.1876 18.3038 20.3427 18.0754C20.5715 17.7385 20.7767 17.3844 20.956 17.0153C21.0766 16.767 21.3678 16.6452 21.6229 16.7509L22.1715 16.9784C22.4266 17.0842 22.5487 17.3774 22.4304 17.6269C22.1944 18.1245 21.919 18.5995 21.6084 19.0479C21.4512 19.2749 21.1361 19.3153 20.9172 19.147L20.4463 18.7852ZM18.3356 12.5729L13.3055 7.54277L8.27538 12.5729C7.87079 12.9775 7.87079 13.6334 8.27538 14.038C8.67996 14.4426 9.33593 14.4426 9.74052 14.038L12.2695 11.5091V18.6774C12.2695 19.2496 12.7333 19.7134 13.3055 19.7134C13.8777 19.7134 14.3415 19.2496 14.3415 18.6774V11.5091L16.8705 14.038C17.2751 14.4426 17.931 14.4426 18.3356 14.038C18.7402 13.6334 18.7402 12.9775 18.3356 12.5729Z" fill="#79FF92"/>
</svg>
