<svg width="20" height="20" viewBox="0 0 20 20" fill="none" xmlns="http://www.w3.org/2000/svg">
<g id="icon/small-remove">
<path id="Icon (Stroke)" fill-rule="evenodd" clip-rule="evenodd" d="M10 5.38053C7.44874 5.38053 5.38053 7.44874 5.38053 10C5.38053 12.5513 7.44874 14.6195 10 14.6195C12.5513 14.6195 14.6195 12.5513 14.6195 10C14.6195 7.44874 12.5513 5.38053 10 5.38053ZM4 10C4 6.68629 6.68629 4 10 4C13.3137 4 16 6.68629 16 10C16 13.3137 13.3137 16 10 16C6.68629 16 4 13.3137 4 10ZM6.87435 10.0003C6.87435 9.61904 7.18339 9.30999 7.56462 9.30999H12.4354C12.8166 9.30999 13.1256 9.61904 13.1256 10.0003C13.1256 10.3815 12.8166 10.6905 12.4354 10.6905H7.56462C7.18339 10.6905 6.87435 10.3815 6.87435 10.0003Z" fill="white"/>
</g>
</svg>
