<svg width="70" height="70" viewBox="0 0 70 70" fill="none" xmlns="http://www.w3.org/2000/svg">
<path d="M0 24.725C0 16.0704 0 11.7432 1.68429 8.43755C3.16583 5.52986 5.52986 3.16583 8.43755 1.68429C11.7432 0 16.0704 0 24.725 0H44.4781C53.1327 0 57.46 0 60.7656 1.68429C63.6733 3.16583 66.0373 5.52986 67.5188 8.43755C69.2031 11.7432 69.2031 16.0704 69.2031 24.725V44.4781C69.2031 53.1327 69.2031 57.46 67.5188 60.7656C66.0373 63.6733 63.6733 66.0373 60.7656 67.5188C57.46 69.2031 53.1327 69.2031 44.4781 69.2031H24.725C16.0704 69.2031 11.7432 69.2031 8.43755 67.5188C5.52986 66.0373 3.16583 63.6733 1.68429 60.7656C0 57.46 0 53.1327 0 44.4781V24.725Z" fill="url(#paint0_linear_7635_2212)"/>
<g filter="url(#filter0_d_7635_2212)">
<path fill-rule="evenodd" clip-rule="evenodd" d="M33.9594 13.6101C30.9589 13.485 28.3871 15.9157 28.3871 19.0573C28.3871 22.1988 30.8517 24.5445 34.1093 24.5445H35.4759C36.9598 24.5445 44.0323 26.0226 44.2466 34.5953C44.2466 39.8338 39.84 44.08 34.6016 44.08C29.6581 44.08 25.6009 40.4891 24.8508 35.8813L24.7437 34.9787C24.7437 31.8669 22.4289 29.3443 19.2874 29.3443C16.1458 29.3443 13.5991 31.8669 13.5991 34.9787V36.3099C14.3492 47.7759 23.5915 55.5977 34.6016 55.5977C46.2011 55.5977 55.6043 46.1944 55.6043 34.5949C55.6043 23.2883 46.6699 14.0685 35.4759 13.6101L33.9594 13.6101Z" fill="url(#paint1_linear_7635_2212)"/>
</g>
<defs>
<filter id="filter0_d_7635_2212" x="5.87256" y="8.90234" width="57.4585" height="57.4453" filterUnits="userSpaceOnUse" color-interpolation-filters="sRGB">
<feFlood flood-opacity="0" result="BackgroundImageFix"/>
<feColorMatrix in="SourceAlpha" type="matrix" values="0 0 0 0 0 0 0 0 0 0 0 0 0 0 0 0 0 0 127 0" result="hardAlpha"/>
<feOffset dy="3.02344"/>
<feGaussianBlur stdDeviation="3.86328"/>
<feComposite in2="hardAlpha" operator="out"/>
<feColorMatrix type="matrix" values="0 0 0 0 0 0 0 0 0 0 0 0 0 0 0 0 0 0 1 0"/>
<feBlend mode="normal" in2="BackgroundImageFix" result="effect1_dropShadow_7635_2212"/>
<feBlend mode="normal" in="SourceGraphic" in2="effect1_dropShadow_7635_2212" result="shape"/>
</filter>
<linearGradient id="paint0_linear_7635_2212" x1="34.6016" y1="0" x2="34.6016" y2="56.0596" gradientUnits="userSpaceOnUse">
<stop stop-color="#32353A"/>
<stop offset="1" stop-color="#050506"/>
</linearGradient>
<linearGradient id="paint1_linear_7635_2212" x1="34.6017" y1="13.6055" x2="34.6017" y2="55.5977" gradientUnits="userSpaceOnUse">
<stop stop-color="white"/>
<stop offset="1" stop-color="#EBEDF2"/>
</linearGradient>
</defs>
</svg>
