<svg width="11" height="11" viewBox="0 0 11 11" fill="none" xmlns="http://www.w3.org/2000/svg">
<path d="M0.118652 5.41699C0.118652 5.26042 0.173665 5.12712 0.283691 5.01709C0.397949 4.90283 0.53125 4.8457 0.683594 4.8457H4.79053V0.745117C4.79053 0.592773 4.84554 0.461589 4.95557 0.351562C5.06559 0.237305 5.19889 0.180176 5.35547 0.180176C5.51204 0.180176 5.64535 0.237305 5.75537 0.351562C5.86963 0.461589 5.92676 0.592773 5.92676 0.745117V4.8457H10.0273C10.1797 4.8457 10.3109 4.90283 10.4209 5.01709C10.5352 5.12712 10.5923 5.26042 10.5923 5.41699C10.5923 5.57357 10.5352 5.70687 10.4209 5.81689C10.3109 5.92692 10.1797 5.98193 10.0273 5.98193H5.92676V10.0889C5.92676 10.2412 5.86963 10.3724 5.75537 10.4824C5.64535 10.5967 5.51204 10.6538 5.35547 10.6538C5.19889 10.6538 5.06559 10.5967 4.95557 10.4824C4.84554 10.3724 4.79053 10.2412 4.79053 10.0889V5.98193H0.683594C0.53125 5.98193 0.397949 5.92692 0.283691 5.81689C0.173665 5.70687 0.118652 5.57357 0.118652 5.41699Z" fill="white" fill-opacity="0.82"/>
</svg>
