<svg width="8" height="8" viewBox="0 0 8 8" fill="none" xmlns="http://www.w3.org/2000/svg">
<path d="M3.30859 7.72266C3.05859 7.72266 2.87109 7.63281 2.70312 7.43359L0.6875 4.99219C0.546875 4.83203 0.496094 4.6875 0.496094 4.52344C0.496094 4.15625 0.769531 3.88672 1.14844 3.88672C1.36719 3.88672 1.52344 3.96484 1.66797 4.13672L3.28906 6.14844L6.48438 1.10938C6.64062 0.863281 6.80078 0.769531 7.05859 0.769531C7.43359 0.769531 7.70703 1.03516 7.70703 1.40234C7.70703 1.53906 7.66406 1.68359 7.5625 1.83984L3.92188 7.40625C3.78125 7.62109 3.57422 7.72266 3.30859 7.72266Z" fill="white"/>
</svg>
