<svg width="25" height="24" viewBox="0 0 25 24" fill="none" xmlns="http://www.w3.org/2000/svg">
<g clip-path="url(#clip0_1765_17802)">
<path fill-rule="evenodd" clip-rule="evenodd" d="M21.5434 11.2436L21.754 11.6641C21.8062 11.7684 21.8334 11.8833 21.8334 11.9999V16.9999C21.8334 17.6409 21.5787 18.2555 21.1255 18.7088C20.6723 19.162 20.0576 19.4166 19.4167 19.4166H6.08335C5.44241 19.4166 4.82772 19.162 4.37451 18.7088C3.9213 18.2555 3.66669 17.6409 3.66669 16.9999V11.9999C3.66669 11.8833 3.69386 11.7684 3.74606 11.6641L6.62004 5.9245L6.6206 5.92338C6.82069 5.52124 7.12889 5.18281 7.51063 4.94609C7.89273 4.70915 8.33375 4.58349 8.78335 4.58325H15.7719C15.535 5.04456 15.3714 5.54968 15.2964 6.08325H8.78335C8.61295 6.08342 8.44597 6.13107 8.30115 6.22088C8.15621 6.31076 8.03922 6.43928 7.96333 6.592L7.96232 6.59405L5.631 11.2499H18.475C18.9537 11.4121 19.4666 11.5 20 11.5C20.5403 11.5 21.0595 11.4098 21.5434 11.2436ZM5.16669 12.7499H20.3334V16.9999C20.3334 17.243 20.2368 17.4762 20.0649 17.6481C19.893 17.82 19.6598 17.9166 19.4167 17.9166H6.08335C5.84024 17.9166 5.60708 17.82 5.43517 17.6481C5.26326 17.4762 5.16669 17.243 5.16669 16.9999V12.7499ZM7.75002 14.5833C7.33581 14.5833 7.00002 14.919 7.00002 15.3333C7.00002 15.7475 7.33581 16.0833 7.75002 16.0833H7.75835C8.17257 16.0833 8.50835 15.7475 8.50835 15.3333C8.50835 14.919 8.17257 14.5833 7.75835 14.5833H7.75002ZM11.0834 14.5833C10.6691 14.5833 10.3334 14.919 10.3334 15.3333C10.3334 15.7475 10.6691 16.0833 11.0834 16.0833H11.0917C11.5059 16.0833 11.8417 15.7475 11.8417 15.3333C11.8417 14.919 11.5059 14.5833 11.0917 14.5833H11.0834Z" fill="#79FF92"/>
<circle cx="20" cy="6.75" r="2.25" fill="#79FF92"/>
</g>
<defs>
<clipPath id="clip0_1765_17802">
<rect width="20" height="20" fill="white" transform="translate(2.75 2)"/>
</clipPath>
</defs>
</svg>
