<svg width="18.08" height="16" viewBox="2 5.5 46 40.71" fill="none" xmlns="http://www.w3.org/2000/svg">
<path d="M37.2462 5.50124C40.5558 5.51256 42.3786 5.60401 43.8135 6.32846C45.2561 7.05682 46.4289 8.21899 47.164 9.64847C47.9995 11.2735 48 13.4005 48 17.6548L47.9988 31.5631C47.9873 34.8426 47.895 36.6489 47.164 38.0708C46.4289 39.5003 45.2561 40.6624 43.8135 41.3908C42.5502 42.0286 40.9863 42.1756 38.3717 42.2094L33.4803 46.2082C32.6468 46.8894 31.3889 46.3019 31.3889 45.2314V5.5L37.2462 5.50124Z" fill="white"/>
<path d="M28.8333 9.29854H14.2662C12.0563 9.29854 10.6292 9.30212 9.54313 9.39004C8.50197 9.47436 8.11546 9.61708 7.92594 9.71277C7.20499 10.0769 6.61881 10.6578 6.25136 11.3722C6.15479 11.56 6.01076 11.943 5.92567 12.9747C5.83694 14.0509 5.83333 15.4651 5.83333 17.6548V30.0644C5.83333 32.2542 5.83694 33.6684 5.92567 34.7446C6.01076 35.7763 6.15479 36.1593 6.25136 36.3471C6.61881 37.0615 7.20499 37.6424 7.92594 38.0065C8.11546 38.1022 8.50197 38.2449 9.54313 38.3292C10.6292 38.4171 12.0563 38.4207 14.2662 38.4207H28.8333V42.2193H14.2662C10.2409 42.2193 8.10254 42.2191 6.49967 41.5367L6.18647 41.3908C4.83418 40.708 3.71808 39.6447 2.9783 38.3366L2.83605 38.0708C2.10496 36.6489 2.01267 34.8426 2.00125 31.5631L2 17.6548C2 13.6661 2.00017 11.5472 2.6888 9.95884L2.83605 9.64847C3.52507 8.30846 4.59816 7.20249 5.91819 6.46942L6.18647 6.32846C7.82638 5.50053 9.97289 5.5 14.2662 5.5H28.8333V9.29854Z" fill="white"/>
</svg>
