<svg width="16" height="16" viewBox="0 0 16 16" fill="none" xmlns="http://www.w3.org/2000/svg">
<path d="M8 0.3125C12.2457 0.3125 15.6875 3.75431 15.6875 8C15.6875 12.2457 12.2457 15.6875 8 15.6875C3.75431 15.6875 0.3125 12.2457 0.3125 8C0.3125 3.75431 3.75431 0.3125 8 0.3125ZM8 1.8125C4.58274 1.8125 1.8125 4.58274 1.8125 8C1.8125 11.4173 4.58274 14.1875 8 14.1875C11.4173 14.1875 14.1875 11.4173 14.1875 8C14.1875 4.58274 11.4173 1.8125 8 1.8125ZM9.95117 4.79297C10.6751 4.69884 11.3012 5.32487 11.207 6.04883L11.1758 6.20508L10.3359 9.28418C10.2136 9.73235 9.89237 10.0953 9.4707 10.2725L9.28418 10.3359L6.20508 11.1758C5.3655 11.4045 4.5955 10.6345 4.82422 9.79492L5.66406 6.71582L5.72754 6.5293C5.90474 6.10762 6.26765 5.78642 6.71582 5.66406L9.79492 4.82422L9.95117 4.79297ZM7.11035 7.11035L6.44336 9.55566L8.88965 8.88965L9.55566 6.44336L7.11035 7.11035Z" fill="#D9D9D9"/>
</svg>
