<svg width="18" height="18" viewBox="0 0 18 18" fill="none" xmlns="http://www.w3.org/2000/svg">
<path d="M8.99998 0C12.8662 4.18333e-05 16 3.08367 16 6.88803C16 8.97468 15.057 10.8451 13.5694 12.1073L13.2649 12.3512C13.168 12.4245 13.0688 12.4957 12.968 12.5641L12.6597 12.7609C12.5802 12.809 12.5654 12.8681 12.5654 12.8885V14.4928C12.5651 16.4301 10.9688 18 8.99998 18C7.03114 18 5.4349 16.4301 5.43458 14.4928V12.8885C5.43458 12.8731 5.42692 12.8356 5.38928 12.7981L5.34021 12.7609C5.23572 12.6978 5.13275 12.6324 5.03199 12.5641L4.73508 12.3512C3.07292 11.0931 2.00002 9.11369 2 6.88803C2 3.08365 5.13376 0 8.99998 0ZM6.98076 14.4928C6.98108 15.59 7.88495 16.4798 8.99998 16.4798C10.115 16.4798 11.0189 15.59 11.0192 14.4928V14.197H6.98076V14.4928ZM8.99998 1.52022C5.98756 1.52022 3.54493 3.92379 3.54493 6.88803C3.54495 8.62134 4.37937 10.1629 5.67738 11.1454L5.90887 11.3113C5.98744 11.3646 6.06771 11.4156 6.14916 11.4648L6.32152 11.5836C6.65592 11.8433 6.90519 12.2266 6.96566 12.6768H11.0343C11.1048 12.1524 11.4309 11.7179 11.8496 11.4648L12.0898 11.3113C12.1685 11.258 12.2457 11.2026 12.3213 11.1454L12.5591 10.9548C13.7207 9.96951 14.4538 8.51333 14.4538 6.88803C14.4538 3.92381 12.0124 1.52026 8.99998 1.52022Z" fill="white"/>
</svg>
