<svg width="16" height="16" viewBox="0 0 16 16" fill="none" xmlns="http://www.w3.org/2000/svg">
<path d="M7.75 1C8.51599 1 9.25641 1.11488 9.9541 1.3291L10.25 1.42676L10.3213 1.45605C10.6648 1.61834 10.8363 2.01779 10.707 2.38379C10.569 2.77433 10.1405 2.97886 9.75 2.84082C9.12546 2.6201 8.45254 2.5 7.75 2.5C4.43629 2.5 1.75 5.18629 1.75 8.5C1.75 11.8137 4.43629 14.5 7.75 14.5C11.0637 14.5 13.75 11.8137 13.75 8.5C13.75 8.15544 13.7215 7.81808 13.666 7.49023L13.6016 7.16602L13.5879 7.08984C13.5419 6.71271 13.7885 6.35445 14.167 6.26855C14.5455 6.18279 14.9217 6.39978 15.043 6.75977L15.0645 6.83398L15.1445 7.24023C15.2139 7.65024 15.25 8.07116 15.25 8.5C15.25 12.6421 11.8921 16 7.75 16C3.60786 16 0.25 12.6421 0.25 8.5C0.25 4.35786 3.60786 1 7.75 1ZM7.75 4.75C8.16421 4.75 8.5 5.08579 8.5 5.5V8.18945L10.1553 9.84473L10.207 9.90137C10.4473 10.1959 10.4299 10.6307 10.1553 10.9053C9.88067 11.1799 9.44595 11.1973 9.15137 10.957L9.09473 10.9053L7.21973 9.03027C7.07907 8.88962 7 8.69891 7 8.5V5.5C7 5.08579 7.33579 4.75 7.75 4.75ZM15.25 0.25C15.5341 0.25 15.7939 0.410951 15.9209 0.665039C16.0477 0.919048 16.02 1.22305 15.8496 1.4502L14.5 3.25H15.25C15.6642 3.25 16 3.58579 16 4C16 4.41421 15.6642 4.75 15.25 4.75H13C12.7159 4.75 12.4561 4.58905 12.3291 4.33496C12.2023 4.08095 12.23 3.77695 12.4004 3.5498L13.75 1.75H13C12.5858 1.75 12.25 1.41421 12.25 1C12.25 0.585786 12.5858 0.25 13 0.25H15.25Z" fill="#D9D9D9"/>
</svg>
