<svg width="24" height="24" viewBox="0 0 24 24" fill="none" xmlns="http://www.w3.org/2000/svg">
<path d="M19.2001 15.8C19.2001 16.5426 18.9051 17.2548 18.38 17.7799C17.8549 18.305 17.1427 18.6 16.4001 18.6C15.6575 18.6 14.9453 18.305 14.4202 17.7799C13.8951 17.2548 13.6001 16.5426 13.6001 15.8C13.6001 15.0574 13.8951 14.3452 14.4202 13.8201C14.9453 13.295 15.6575 13 16.4001 13C17.1427 13 17.8549 13.295 18.38 13.8201C18.9051 14.3452 19.2001 15.0574 19.2001 15.8Z" stroke="#8E929B" stroke-width="1.5"/>
<path d="M4 10.6H20M5.6 10.6L6.0912 8.636C6.5272 6.8896 6.7456 6.0168 7.3968 5.508C8.048 5 8.948 5 10.748 5H13.252C15.052 5 15.952 5 16.6032 5.508C17.2544 6.0168 17.472 6.8896 17.9088 8.636L18.4 10.6" stroke="#8E929B" stroke-width="1.5" stroke-linecap="round"/>
<path d="M10.4001 15.8C10.4001 16.1677 10.3276 16.5318 10.1869 16.8715C10.0462 17.2112 9.83995 17.5199 9.57995 17.7799C9.31994 18.0399 9.01128 18.2462 8.67156 18.3869C8.33185 18.5276 7.96775 18.6 7.60005 18.6C7.23235 18.6 6.86825 18.5276 6.52854 18.3869C6.18882 18.2462 5.88015 18.0399 5.62015 17.7799C5.36015 17.5199 5.1539 17.2112 5.01319 16.8715C4.87247 16.5318 4.80005 16.1677 4.80005 15.8C4.80005 15.0574 5.09505 14.3452 5.62015 13.8201C6.14525 13.295 6.85744 13 7.60005 13C8.34266 13 9.05485 13.295 9.57995 13.8201C10.1051 14.3452 10.4001 15.0574 10.4001 15.8Z" stroke="#8E929B" stroke-width="1.5"/>
<path d="M10.3999 15.7997L10.9263 15.5357C11.2596 15.369 11.6272 15.2822 11.9999 15.2822C12.3726 15.2822 12.7402 15.369 13.0735 15.5357L13.5999 15.7997" stroke="#8E929B" stroke-width="1.5" stroke-linecap="round"/>
</svg>
