<svg width="12" height="12" viewBox="0 0 12 12" fill="none" xmlns="http://www.w3.org/2000/svg">
<path d="M4.00126 5.55904V2.25569C4.00126 0.930065 4.83302 0 6.00252 0C7.16698 0 7.99874 0.930065 7.99874 2.25569V5.55904C7.99874 6.89 7.16698 7.81473 6.00252 7.81473C4.83302 7.81473 4.00126 6.89 4.00126 5.55904ZM5.10523 5.59111C5.10523 6.24857 5.44298 6.71361 6.00252 6.71361C6.55703 6.71361 6.89981 6.24857 6.89981 5.59111V2.22362C6.89981 1.56615 6.55703 1.10111 6.00252 1.10111C5.44298 1.10111 5.10523 1.5715 5.10523 2.22362V5.59111ZM2 5.8263V4.78932C2 4.47396 2.24701 4.22808 2.54946 4.22808C2.84688 4.22808 3.09893 4.47396 3.09893 4.78932V5.78888C3.09893 7.60627 4.28859 8.8036 6.00252 8.8036C7.7114 8.8036 8.90611 7.60627 8.90611 5.78888V4.78932C8.90611 4.47396 9.15312 4.22808 9.45558 4.22808C9.75804 4.22808 10 4.47396 10 4.78932V5.8263C10 8.10871 8.56333 9.6428 6.52174 9.8673V10.8508H8.36169C8.6591 10.8508 8.91115 11.1074 8.91115 11.4228C8.91115 11.7381 8.6591 12 8.36169 12H3.64335C3.3409 12 3.09389 11.7381 3.09389 11.4228C3.09389 11.1074 3.3409 10.8508 3.64335 10.8508H5.47826V9.8673C3.44171 9.6428 2 8.10871 2 5.8263Z" fill="#8E929B"/>
</svg>
