<svg width="14" height="15" viewBox="0 0 14 15" fill="none" xmlns="http://www.w3.org/2000/svg">
<path d="M8.3252 0.5625C9.15278 0.5625 9.81862 0.56153 10.3564 0.605469C10.9031 0.650128 11.3829 0.745365 11.8271 0.97168C12.5328 1.3312 13.1063 1.90474 13.4658 2.61035C13.6921 3.05455 13.7874 3.53445 13.832 4.08105C13.876 4.61888 13.875 5.28472 13.875 6.1123V8.8877C13.875 9.71528 13.876 10.3811 13.832 10.9189C13.7874 11.4656 13.6921 11.9454 13.4658 12.3896C13.1063 13.0953 12.5328 13.6688 11.8271 14.0283C11.3829 14.2546 10.9031 14.3499 10.3564 14.3945C9.81862 14.4385 9.15278 14.4375 8.3252 14.4375H5.5498C4.72222 14.4375 4.05638 14.4385 3.51855 14.3945C2.97195 14.3499 2.49205 14.2546 2.04785 14.0283C1.34224 13.6688 0.768704 13.0953 0.40918 12.3896C0.182864 11.9454 0.0876284 11.4656 0.0429688 10.9189C-0.000969793 10.3811 -9.15705e-08 9.71528 0 8.8877V6.1123C-9.27487e-08 5.28472 -0.000969916 4.61888 0.0429688 4.08105C0.0876286 3.53445 0.182864 3.05455 0.40918 2.61035C0.768705 1.90474 1.34224 1.3312 2.04785 0.97168C2.49205 0.745364 2.97195 0.650129 3.51855 0.605469C4.05638 0.56153 4.72222 0.5625 5.5498 0.5625H8.3252ZM5.5498 2.0625C4.69746 2.0625 4.10322 2.06279 3.64062 2.10059C3.1868 2.13767 2.92602 2.20699 2.72852 2.30762C2.30515 2.52333 1.96083 2.86765 1.74512 3.29102C1.64449 3.48852 1.57517 3.7493 1.53809 4.20312C1.50029 4.66572 1.5 5.25996 1.5 6.1123V8.8877C1.5 9.74004 1.50029 10.3343 1.53809 10.7969C1.57517 11.2507 1.64449 11.5115 1.74512 11.709C1.96083 12.1323 2.30515 12.4767 2.72852 12.6924C2.92602 12.793 3.1868 12.8623 3.64062 12.8994C4.10322 12.9372 4.69746 12.9375 5.5498 12.9375H8.3252C9.17754 12.9375 9.77178 12.9372 10.2344 12.8994C10.6882 12.8623 10.949 12.793 11.1465 12.6924C11.5698 12.4767 11.9142 12.1323 12.1299 11.709C12.2305 11.5115 12.2998 11.2507 12.3369 10.7969C12.3747 10.3343 12.375 9.74004 12.375 8.8877V6.1123C12.375 5.25996 12.3747 4.66572 12.3369 4.20312C12.2998 3.7493 12.2305 3.48852 12.1299 3.29102C11.9142 2.86765 11.5698 2.52333 11.1465 2.30762C10.949 2.20699 10.6882 2.13767 10.2344 2.10059C9.77178 2.06279 9.17754 2.0625 8.3252 2.0625H5.5498Z" fill="#D9D9D9"/>
</svg>
