<svg width="17" height="18" viewBox="0 0 17 18" fill="none" xmlns="http://www.w3.org/2000/svg">
<g clip-path="url(#clip0_2574_85030)">
<path d="M6.19647 13.0729V12.6128C6.19647 12.345 6.04317 12.1037 5.81499 11.9635C5.66147 11.8692 5.51329 11.7671 5.371 11.6576C4.15014 10.7187 3.36334 9.2432 3.36334 7.58396C3.36334 4.7474 5.66283 2.44791 8.49939 2.44791C11.3359 2.44791 13.6354 4.7474 13.6354 7.58396C13.6354 9.2432 12.8486 10.7187 11.6278 11.6576C11.4855 11.7671 11.3373 11.8692 11.1838 11.9635C10.9556 12.1037 10.8023 12.345 10.8023 12.6128V13.0729M6.19647 13.0729V13.9575C6.19647 15.2294 7.22752 16.2604 8.49939 16.2604C9.77125 16.2604 10.8023 15.2294 10.8023 13.9575V13.0729M6.19647 13.0729H10.8023" stroke="#C1C5CE" stroke-width="1.5" stroke-linecap="square" stroke-linejoin="round"/>
</g>
<defs>
<clipPath id="clip0_2574_85030">
<rect width="17" height="17" fill="white" transform="translate(0 0.5)"/>
</clipPath>
</defs>
</svg>
