<svg width="16" height="20" viewBox="0 0 16 20" fill="none" xmlns="http://www.w3.org/2000/svg">
<path d="M7.74219 11.4062C7.9974 11.4062 8.20312 11.487 8.35938 11.6484C8.52083 11.8099 8.60156 12.0208 8.60156 12.2812V15.4688L8.54688 16.9688L10.4297 14.9375C10.5078 14.849 10.5964 14.7839 10.6953 14.7422C10.7995 14.7005 10.9115 14.6797 11.0312 14.6797C11.2708 14.6797 11.4661 14.7578 11.6172 14.9141C11.7734 15.0703 11.8516 15.2656 11.8516 15.5C11.8516 15.6198 11.8281 15.7318 11.7812 15.8359C11.7344 15.9401 11.6641 16.0391 11.5703 16.1328L8.38281 19.2812C8.29948 19.3698 8.20052 19.4375 8.08594 19.4844C7.97656 19.5365 7.86198 19.5625 7.74219 19.5625C7.6224 19.5625 7.50781 19.5365 7.39844 19.4844C7.28906 19.4375 7.19271 19.3698 7.10938 19.2812L3.92188 16.1328C3.82812 16.0391 3.75781 15.9401 3.71094 15.8359C3.66406 15.7318 3.64062 15.6198 3.64062 15.5C3.64062 15.2656 3.71615 15.0703 3.86719 14.9141C4.02344 14.7578 4.21875 14.6797 4.45312 14.6797C4.57812 14.6797 4.6901 14.7005 4.78906 14.7422C4.89323 14.7839 4.98438 14.849 5.0625 14.9375L6.94531 16.9688L6.88281 15.4688V12.2812C6.88281 12.0208 6.96354 11.8099 7.125 11.6484C7.28646 11.487 7.49219 11.4062 7.74219 11.4062ZM14.6562 8.9375C14.8958 8.9375 15.0938 9.01823 15.25 9.17969C15.4062 9.34115 15.4844 9.54167 15.4844 9.78125C15.4844 10.0208 15.4062 10.2214 15.25 10.3828C15.0938 10.5443 14.8958 10.625 14.6562 10.625H0.835938C0.591146 10.625 0.390625 10.5443 0.234375 10.3828C0.078125 10.2214 0 10.0208 0 9.78125C0 9.54167 0.078125 9.34115 0.234375 9.17969C0.390625 9.01823 0.591146 8.9375 0.835938 8.9375H14.6562ZM7.74219 0C7.86198 0 7.97656 0.0260417 8.08594 0.078125C8.20052 0.125 8.29948 0.190104 8.38281 0.273438L11.5703 3.42969C11.6641 3.51823 11.7344 3.61719 11.7812 3.72656C11.8281 3.83073 11.8516 3.9401 11.8516 4.05469C11.8516 4.29427 11.7734 4.49219 11.6172 4.64844C11.4661 4.79948 11.2708 4.875 11.0312 4.875C10.9115 4.875 10.7995 4.85677 10.6953 4.82031C10.5964 4.77865 10.5078 4.71354 10.4297 4.625L8.54688 2.58594L8.60156 4.09375V7.28125C8.60156 7.54167 8.52083 7.7526 8.35938 7.91406C8.20312 8.07031 7.9974 8.14844 7.74219 8.14844C7.49219 8.14844 7.28646 8.07031 7.125 7.91406C6.96354 7.7526 6.88281 7.54167 6.88281 7.28125V4.09375L6.94531 2.58594L5.0625 4.625C4.98438 4.71354 4.89323 4.77865 4.78906 4.82031C4.6901 4.85677 4.57812 4.875 4.45312 4.875C4.21875 4.875 4.02344 4.79948 3.86719 4.64844C3.71615 4.49219 3.64062 4.29427 3.64062 4.05469C3.64062 3.9401 3.66406 3.83073 3.71094 3.72656C3.75781 3.61719 3.82812 3.51823 3.92188 3.42969L7.10938 0.273438C7.19271 0.190104 7.28906 0.125 7.39844 0.078125C7.50781 0.0260417 7.6224 0 7.74219 0Z" fill="#D9D9D9"/>
</svg>
