<svg width="20" height="20" viewBox="0 0 20 20" fill="none" xmlns="http://www.w3.org/2000/svg">
<g id="icon/bin">
<path id="Icon (Stroke)" fill-rule="evenodd" clip-rule="evenodd" d="M6.23533 4.04169H2.29175C1.87753 4.04169 1.54175 4.37747 1.54175 4.79169C1.54175 5.2059 1.87753 5.54169 2.29175 5.54169H3.25524L3.8924 15.4176C4.00273 17.1277 5.42197 18.4584 7.13566 18.4584H12.8645C14.5782 18.4584 15.9974 17.1277 16.1078 15.4176L16.7449 5.54169H17.7084C18.1226 5.54169 18.4584 5.2059 18.4584 4.79169C18.4584 4.37747 18.1226 4.04169 17.7084 4.04169H13.7649C13.1465 2.57318 11.6945 1.54169 10.0001 1.54169C8.30569 1.54169 6.85371 2.57318 6.23533 4.04169ZM7.95851 4.04169H12.0417C11.5688 3.43309 10.8297 3.04169 10.0001 3.04169C9.17047 3.04169 8.43136 3.43309 7.95851 4.04169ZM13.2115 5.54169H4.75836L5.38929 15.321C5.4487 16.2419 6.2129 16.9584 7.13566 16.9584H12.8645C13.7873 16.9584 14.5515 16.2419 14.6109 15.321L15.2418 5.54169H13.2443C13.2333 5.54193 13.2224 5.54193 13.2115 5.54169ZM8.12508 8.20835C8.5393 8.20835 8.87508 8.54414 8.87508 8.95835V13.5417C8.87508 13.9559 8.5393 14.2917 8.12508 14.2917C7.71087 14.2917 7.37508 13.9559 7.37508 13.5417V8.95835C7.37508 8.54414 7.71087 8.20835 8.12508 8.20835ZM11.8751 8.20835C12.2893 8.20835 12.6251 8.54414 12.6251 8.95835V13.5417C12.6251 13.9559 12.2893 14.2917 11.8751 14.2917C11.4609 14.2917 11.1251 13.9559 11.1251 13.5417V8.95835C11.1251 8.54414 11.4609 8.20835 11.8751 8.20835Z" fill="white"/>
</g>
</svg>
