<svg width="18" height="18" viewBox="0 0 18 18" fill="none" xmlns="http://www.w3.org/2000/svg">
<path d="M4.09601 14.4047C4.42975 14.071 4.9703 14.0709 5.30401 14.4047C5.63762 14.7384 5.63761 15.2789 5.30401 15.6127L4.02179 16.8949C3.68804 17.2284 3.14744 17.2285 2.81378 16.8949C2.48004 16.5612 2.48004 16.0196 2.81378 15.6859L4.09601 14.4047ZM9.93976 1.28649C11.7352 0.269024 14.056 -0.164965 17.1517 0.0560256C17.5755 0.0863259 17.9132 0.423227 17.9437 0.847041C18.1648 3.94268 17.7306 6.26349 16.7132 8.05896C15.7832 9.70027 14.415 10.8165 12.8187 11.682V12.5482C12.8185 13.5459 12.3818 14.4937 11.6243 15.1429L9.52862 16.9398C9.31309 17.1243 9.02002 17.1898 8.7464 17.1146C8.47284 17.0393 8.25417 16.8328 8.16339 16.5638L8.16046 16.558L8.15265 16.5336C8.14524 16.5121 8.13362 16.4793 8.11847 16.4369C8.08796 16.3515 8.04251 16.2262 7.98273 16.0707C7.86288 15.7584 7.68753 15.3272 7.46905 14.8529C7.01945 13.8769 6.4304 12.8201 5.80499 12.1947C5.17956 11.5693 4.12294 10.9803 3.14679 10.5306C2.67247 10.3121 2.24132 10.1368 1.92901 10.017C1.77319 9.95716 1.64726 9.91186 1.56183 9.88122C1.51923 9.866 1.48653 9.85455 1.46515 9.84704L1.44171 9.83825L1.43683 9.83728C1.16769 9.74646 0.960386 9.5271 0.885069 9.25329C0.80973 8.97943 0.874992 8.68573 1.05987 8.47009L2.85675 6.37536C3.50603 5.61773 4.45369 5.18113 5.45148 5.18103H6.31769C7.18314 3.5848 8.2986 2.2166 9.93976 1.28649ZM2.38605 12.6957C2.71978 12.3619 3.26129 12.3619 3.59503 12.6957C3.92848 13.0294 3.92857 13.57 3.59503 13.9037L1.45831 16.0404C1.12462 16.3739 0.584 16.3739 0.250304 16.0404C-0.0834346 15.7067 -0.0834346 15.1652 0.250304 14.8314L2.38605 12.6957ZM12.3909 3.8988C11.4471 3.89887 10.6819 4.6649 10.6819 5.60876C10.6821 6.55256 11.4472 7.31767 12.3909 7.31774C13.3347 7.31774 14.0997 6.55261 14.0999 5.60876C14.0999 4.66486 13.3348 3.8988 12.3909 3.8988Z" fill="white"/>
</svg>
