<svg width="18" height="18" viewBox="0 0 24 24" fill="none" xmlns="http://www.w3.org/2000/svg">
  <path d="M20.317 4.3698a19.7913 19.7913 0 00-4.8851-1.5152.0741.0741 0 00-.0785.0371 13.7921 13.7921 0 00-.6209 1.2835 18.671 18.671 0 00-5.4953 0A13.5131 13.5131 0 008.2164 2.891 20.1982 20.1982 0 003.3208 4.37a.067.067 0 00-.028.025C.5334 9.0458-.319 13.5799.0992 18.0578a.0824.0824 0 00.0312.0561c2.0528 1.503 4.0413 2.4228 5.9929 3.0294a.0777.0777 0 00.0842-.0276c.4616-.6304.8731-1.2952 1.226-1.9942a.076.076 0 00-.0416-.1057 12.32 12.32 0 01-1.8722-.875.0726.0726 0 01-.0266-.0277.074.074 0 01.0208-.0416c.1259-.098.2508-.1968.3718-.2969a.0743.0743 0 00.0066-.0977 8.8757 8.8757 0 01-.7407-1.1428.075.075 0 00-.0945-.0352c-.551.2476-1.084.5401-1.5989.865a.077.077 0 01-.0785-.0709c1.5642-3.029 4.087-4.581 7.6719-4.581 3.5849 0 6.1153 1.552 7.6795 4.581a.077.077 0 01-.0785.0709 12.2986 12.2986 0 00-1.5989-.865.0766.0766 0 00-.0945.0352 8.2848 8.2848 0 01-.7406 1.1428.0739.0739 0 00.0065.0976c.1209.1001.2458.1989.3707.2969a.074.074 0 01.0209.0416.073.073 0 01-.0267.0276c-.5979.3349-1.2194.6274-1.872 0.875a.075.075 0 00-.0417.1057 11.3656 11.3656 0 001.2259 1.9943.0766.0766 0 00.0842.0276c1.961-.6067 3.9495-1.5266 6.0023-3.0294a.077.077 0 00.0313-.0561c.4992-4.9868-.8582-9.4815-3.5685-13.4679a.064.064 0 00-.031-.028zm-11.797 8.5035c-1.1825 0-2.1569-1.0857-2.1569-2.419 0-1.3333.9537-2.419 2.1569-2.419 1.2135 0 2.1875 1.0957 2.1568 2.419 0 1.3333-.9532 2.419-2.1568 2.419zm7.9748 0c-1.1825 0-2.1569-1.0857-2.1569-2.419 0-1.3333.9537-2.419 2.1569-2.419 1.2135 0 2.1875 1.0957 2.1568 2.419 0 1.3333-.9532 2.419-2.1568 2.419z" fill="white"/>
</svg>
