<svg width="18" height="14" viewBox="0 0 18 14" fill="none" xmlns="http://www.w3.org/2000/svg">
<path d="M15.0584 1.44159C13.9501 0.924918 12.7501 0.549919 11.5001 0.333252C11.4781 0.333565 11.4571 0.342551 11.4417 0.358252C11.2917 0.633252 11.1167 0.991585 11.0001 1.26659C9.67422 1.06671 8.3259 1.06671 7.00006 1.26659C6.88339 0.983252 6.70839 0.633252 6.55006 0.358252C6.54173 0.341585 6.51672 0.333252 6.49172 0.333252C5.24172 0.549919 4.05006 0.924918 2.93339 1.44159C2.92506 1.44159 2.91672 1.44992 2.90839 1.45825C0.641724 4.84992 0.0167236 8.14992 0.325057 11.4166C0.325057 11.4333 0.33339 11.4499 0.350057 11.4583C1.85006 12.5583 3.29172 13.2249 4.71672 13.6666C4.74172 13.6749 4.76672 13.6666 4.77506 13.6499C5.10839 13.1916 5.40839 12.7083 5.66672 12.1999C5.68339 12.1666 5.66672 12.1333 5.63339 12.1249C5.15839 11.9416 4.70839 11.7249 4.26672 11.4749C4.23339 11.4583 4.23339 11.4083 4.25839 11.3833C4.35006 11.3166 4.44172 11.2416 4.53339 11.1749C4.55006 11.1583 4.57506 11.1583 4.59172 11.1666C7.45839 12.4749 10.5501 12.4749 13.3834 11.1666C13.4001 11.1583 13.4251 11.1583 13.4417 11.1749C13.5334 11.2499 13.6251 11.3166 13.7167 11.3916C13.7501 11.4166 13.7501 11.4666 13.7084 11.4833C13.2751 11.7416 12.8167 11.9499 12.3417 12.1333C12.3084 12.1416 12.3001 12.1833 12.3084 12.2083C12.5751 12.7166 12.8751 13.1999 13.2001 13.6583C13.2251 13.6666 13.2501 13.6749 13.2751 13.6666C14.7084 13.2249 16.1501 12.5583 17.6501 11.4583C17.6667 11.4499 17.6751 11.4333 17.6751 11.4166C18.0417 7.64158 17.0667 4.36658 15.0917 1.45825C15.0834 1.44992 15.0751 1.44159 15.0584 1.44159ZM6.10006 9.42492C5.24172 9.42492 4.52506 8.63325 4.52506 7.65825C4.52506 6.68325 5.22506 5.89158 6.10006 5.89158C6.98339 5.89158 7.68339 6.69158 7.67506 7.65825C7.67506 8.63325 6.97506 9.42492 6.10006 9.42492ZM11.9084 9.42492C11.0501 9.42492 10.3334 8.63325 10.3334 7.65825C10.3334 6.68325 11.0334 5.89158 11.9084 5.89158C12.7917 5.89158 13.4917 6.69158 13.4834 7.65825C13.4834 8.63325 12.7917 9.42492 11.9084 9.42492Z" fill="#8E929B"/>
</svg>
