<svg width="16" height="17" viewBox="0 0 16 17" fill="none" xmlns="http://www.w3.org/2000/svg">
<rect x="10" y="11" width="6" height="6" rx="3" fill="#FFA02C"/>
<path d="M2.13379 6.36621C3.31179 6.36646 4.2666 7.32194 4.2666 8.5C4.2666 10.5619 5.93814 12.2334 8 12.2334C8.1106 12.2334 8.21997 12.2272 8.32812 12.2178C8.11677 12.7715 8 13.372 8 14C8 14.8989 8.23811 15.7418 8.65332 16.4707C8.43777 16.4881 8.22004 16.5 8 16.5C3.58172 16.5 0 12.9183 0 8.5C2.57702e-07 7.32179 0.955582 6.36621 2.13379 6.36621ZM8 0.5C12.4183 0.5 16 4.08172 16 8.5C16 8.98095 15.9554 9.4516 15.874 9.90918C15.0609 9.33684 14.0699 9 13 9C12.5394 9 12.0935 9.06307 11.6699 9.17969C11.7105 8.9592 11.7334 8.73222 11.7334 8.5C11.7334 6.43814 10.0619 4.7666 8 4.7666C6.82194 4.7666 5.86646 3.81179 5.86621 2.63379C5.86621 1.45558 6.82179 0.5 8 0.5Z" fill="white"/>
</svg>
