<svg width="16" height="17" viewBox="0 0 16 17" fill="none" xmlns="http://www.w3.org/2000/svg">
<rect x="10" y="10.5" width="6" height="6" rx="3" fill="#FA2B2A"/>
<path d="M2.13379 5.86621C3.31179 5.86646 4.2666 6.82194 4.2666 8C4.2666 10.0619 5.93814 11.7334 8 11.7334C8.1106 11.7334 8.21997 11.7272 8.32812 11.7178C8.11677 12.2715 8 12.872 8 13.5C8 14.3989 8.23811 15.2418 8.65332 15.9707C8.43777 15.9881 8.22004 16 8 16C3.58172 16 0 12.4183 0 8C2.57702e-07 6.82179 0.955582 5.86621 2.13379 5.86621ZM8 0C12.4183 0 16 3.58172 16 8C16 8.48095 15.9554 8.9516 15.874 9.40918C15.0609 8.83684 14.0699 8.5 13 8.5C12.5394 8.5 12.0935 8.56307 11.6699 8.67969C11.7105 8.4592 11.7334 8.23222 11.7334 8C11.7334 5.93814 10.0619 4.2666 8 4.2666C6.82194 4.2666 5.86646 3.31179 5.86621 2.13379C5.86621 0.955582 6.82179 2.25493e-07 8 0Z" fill="white"/>
</svg>
