<svg width="20" height="20" viewBox="0 0 20 20" fill="none" xmlns="http://www.w3.org/2000/svg">
<g id="icon/more-horizontal">
<g id="Union">
<path d="M3.33333 8.41669C2.45888 8.41669 1.75 9.12557 1.75 10C1.75 10.8745 2.45888 11.5834 3.33333 11.5834C4.20778 11.5834 4.91667 10.8745 4.91667 10C4.91667 9.12557 4.20778 8.41669 3.33333 8.41669Z" fill="white"/>
<path d="M10 8.41669C9.12555 8.41669 8.41667 9.12557 8.41667 10C8.41667 10.8745 9.12555 11.5834 10 11.5834C10.8745 11.5834 11.5833 10.8745 11.5833 10C11.5833 9.12557 10.8745 8.41669 10 8.41669Z" fill="white"/>
<path d="M16.6667 8.41669C15.7922 8.41669 15.0833 9.12557 15.0833 10C15.0833 10.8745 15.7922 11.5834 16.6667 11.5834C17.5411 11.5834 18.25 10.8745 18.25 10C18.25 9.12557 17.5411 8.41669 16.6667 8.41669Z" fill="white"/>
</g>
</g>
</svg>
