<svg width="13" height="13" viewBox="0 0 13 13" fill="none" xmlns="http://www.w3.org/2000/svg">
<path d="M7.25513 1.00928C7.69629 0.489212 8.48774 0.456737 8.96997 0.938965L11.8459 3.81592C12.3281 4.29819 12.2957 5.08868 11.7756 5.52979L8.9231 7.94971C8.88115 7.98528 8.85885 8.03954 8.8645 8.09424L9.05786 9.95361C9.09403 10.3031 8.97035 10.6505 8.72192 10.8989L8.28735 11.3345C7.83182 11.79 7.09259 11.7899 6.63696 11.3345L4.50415 9.20166L1.68677 12.02C1.49154 12.2152 1.17501 12.2152 0.979736 12.02C0.784637 11.8247 0.784528 11.5082 0.979736 11.313L3.79712 8.49463L1.45142 6.14795C0.995866 5.69233 0.995825 4.95413 1.45142 4.49854L1.88696 4.06299C2.13547 3.81462 2.4828 3.69175 2.83228 3.72803L4.69067 3.92041C4.74528 3.92597 4.79969 3.90466 4.83521 3.86279L7.25513 1.00928Z" fill="white"/>
</svg>
