<svg width="12" height="12" viewBox="0 0 12 12" fill="none" xmlns="http://www.w3.org/2000/svg">
<path d="M7.78027 0.003479C8.10258 0.0264026 8.40634 0.164613 8.63477 0.393127L11.6064 3.36578C11.8349 3.59411 11.9741 3.89712 11.9971 4.2193C12.02 4.54163 11.9254 4.86219 11.7314 5.12067L10.2656 7.07477C9.65654 7.88668 9.26182 8.83955 9.11816 9.8443L8.91016 11.3043C8.84037 11.7941 8.3116 12.1537 7.79492 11.9175C7.30961 11.6953 6.0308 10.9876 3.95703 8.99176L1.15332 11.7955C1.09149 11.8594 1.01726 11.9108 0.935547 11.9459C0.853796 11.9809 0.765707 11.9988 0.676758 11.9996C0.587697 12.0003 0.499425 11.9835 0.416992 11.9498C0.334547 11.916 0.25928 11.8663 0.196289 11.8033C0.133478 11.7404 0.0835015 11.6658 0.0498047 11.5836C0.0160658 11.5011 -0.00077422 11.4119 0 11.3228C0.000821776 11.2338 0.0195689 11.1458 0.0546875 11.064C0.0898517 10.9822 0.141043 10.9081 0.205078 10.8463L3.00879 8.04352C1.01254 5.96955 0.305112 4.68976 0.0830078 4.20465C-0.152895 3.68747 0.205635 3.16091 0.695312 3.09039L2.15625 2.88239C3.16109 2.73873 4.1138 2.34401 4.92578 1.73492L6.87988 0.268127C7.13825 0.074312 7.4581 -0.0193321 7.78027 0.003479Z" fill="#D9D9D9"/>
</svg>
