<svg width="14" height="14" viewBox="0 0 14 14" fill="none" xmlns="http://www.w3.org/2000/svg">
<path d="M0.599976 2.19998C0.599976 1.77563 0.768546 1.36866 1.0686 1.0686C1.36866 0.768546 1.77563 0.599976 2.19998 0.599976H7.79998C8.22432 0.599976 8.63129 0.768546 8.93135 1.0686C9.2314 1.36866 9.39998 1.77563 9.39998 2.19998V6.99998C9.39998 7.42432 9.2314 7.83129 8.93135 8.13135C8.63129 8.4314 8.22432 8.59998 7.79998 8.59998H6.53598L5.35198 10.7904C5.31778 10.8538 5.26711 10.9067 5.20531 10.9437C5.14351 10.9807 5.07287 11.0003 5.00085 11.0004C4.92883 11.0006 4.85811 10.9813 4.79614 10.9446C4.73417 10.9079 4.68326 10.8552 4.64878 10.792L3.44958 8.59998H2.19998C1.77563 8.59998 1.36866 8.4314 1.0686 8.13135C0.768546 7.83129 0.599976 7.42432 0.599976 6.99998V2.19998ZM3.39998 2.99998C3.29389 2.99998 3.19215 3.04212 3.11713 3.11713C3.04212 3.19215 2.99998 3.29389 2.99998 3.39998V4.19998C2.99994 4.27419 3.02055 4.34696 3.0595 4.41013C3.09846 4.4733 3.15422 4.52439 3.22055 4.55768C3.28689 4.59097 3.36117 4.60515 3.4351 4.59863C3.50903 4.59211 3.57969 4.56516 3.63918 4.52078C3.47758 5.05358 3.23678 5.39678 3.11678 5.51678C3.07959 5.55397 3.05008 5.59812 3.02996 5.64671C3.00983 5.6953 2.99947 5.74738 2.99947 5.79998C2.99947 5.85257 3.00983 5.90465 3.02996 5.95324C3.05008 6.00183 3.07959 6.04599 3.11678 6.08318C3.19188 6.15829 3.29376 6.20048 3.39998 6.20048C3.45257 6.20048 3.50465 6.19012 3.55324 6.16999C3.60183 6.14987 3.64599 6.12037 3.68318 6.08318C4.02638 5.73918 4.59998 4.78398 4.59998 3.39998C4.59998 3.29389 4.55783 3.19215 4.48282 3.11713C4.4078 3.04212 4.30606 2.99998 4.19998 2.99998H3.39998ZM5.79998 2.99998C5.69389 2.99998 5.59215 3.04212 5.51713 3.11713C5.44212 3.19215 5.39998 3.29389 5.39998 3.39998V4.19998C5.39994 4.27419 5.42055 4.34696 5.4595 4.41013C5.49846 4.4733 5.55422 4.52439 5.62055 4.55768C5.68689 4.59097 5.76117 4.60515 5.8351 4.59863C5.90903 4.59211 5.97969 4.56516 6.03918 4.52078C5.87758 5.05358 5.63678 5.39678 5.51678 5.51678C5.47959 5.55397 5.45008 5.59812 5.42996 5.64671C5.40983 5.6953 5.39947 5.74738 5.39947 5.79998C5.39947 5.85257 5.40983 5.90465 5.42996 5.95324C5.45008 6.00183 5.47959 6.04599 5.51678 6.08318C5.55397 6.12037 5.59812 6.14987 5.64671 6.16999C5.6953 6.19012 5.74738 6.20048 5.79998 6.20048C5.85257 6.20048 5.90465 6.19012 5.95324 6.16999C6.00183 6.14987 6.04599 6.12037 6.08318 6.08318C6.42638 5.73918 6.99998 4.78398 6.99998 3.39998C6.99998 3.29389 6.95783 3.19215 6.88282 3.11713C6.8078 3.04212 6.70606 2.99998 6.59998 2.99998H5.79998ZM3.41358 10.2H0.999976C0.893889 10.2 0.792148 10.2421 0.717133 10.3171C0.642118 10.3921 0.599976 10.4939 0.599976 10.6C0.599976 10.7061 0.642118 10.8078 0.717133 10.8828C0.792148 10.9578 0.893889 11 0.999976 11H3.85118L3.41358 10.2ZM6.14798 11H13C13.1061 11 13.2078 10.9578 13.2828 10.8828C13.3578 10.8078 13.4 10.7061 13.4 10.6C13.4 10.4939 13.3578 10.3921 13.2828 10.3171C13.2078 10.2421 13.1061 10.2 13 10.2H6.58078L6.14798 11ZM0.599976 13C0.599976 12.8939 0.642118 12.7921 0.717133 12.7171C0.792148 12.6421 0.893889 12.6 0.999976 12.6H8.99998C9.10606 12.6 9.2078 12.6421 9.28282 12.7171C9.35783 12.7921 9.39998 12.8939 9.39998 13C9.39998 13.1061 9.35783 13.2078 9.28282 13.2828C9.2078 13.3578 9.10606 13.4 8.99998 13.4H0.999976C0.893889 13.4 0.792148 13.3578 0.717133 13.2828C0.642118 13.2078 0.599976 13.1061 0.599976 13Z" fill="black"/>
</svg>
