<svg width="20" height="20" viewBox="0 0 20 20" fill="none" xmlns="http://www.w3.org/2000/svg">
<path fill-rule="evenodd" clip-rule="evenodd" d="M11.2974 2.25C12.032 2.24998 12.6584 2.24997 13.1842 2.29267C12.9134 2.73972 12.7143 3.23501 12.6028 3.76261C12.2354 3.75044 11.7955 3.75 11.252 3.75H8.748C7.82975 3.75 7.20723 3.75125 6.73059 3.8082C6.27418 3.86274 6.03626 3.96047 5.85838 4.09914C5.68037 4.23829 5.52774 4.44548 5.36417 4.87488C5.19335 5.32332 5.04127 5.92685 4.81887 6.81767L4.81879 6.81797L4.56068 7.85H13.6509C14.2734 8.57207 15.1096 9.10478 16.0611 9.35H3.61682C3.60602 9.35024 3.59518 9.35024 3.58431 9.35H2C1.58579 9.35 1.25 9.01422 1.25 8.6C1.25 8.18579 1.58579 7.85 2 7.85H3.01448L3.36353 6.45434L3.36361 6.45403L3.3735 6.41444C3.5826 5.57678 3.75552 4.88408 3.96243 4.34092C4.1798 3.77027 4.46193 3.28666 4.93504 2.91701L4.93549 2.91665C5.40878 2.54744 5.94645 2.39123 6.55261 2.3188C7.12867 2.24996 7.84122 2.24998 8.70256 2.25H8.70258H8.7026H8.748H11.252H11.2974H11.2974H11.2974ZM12.9504 12.3504C13.3349 11.966 13.8563 11.75 14.4 11.75C14.9437 11.75 15.4651 11.966 15.8495 12.3504C16.234 12.7349 16.45 13.2563 16.45 13.8C16.45 14.3437 16.234 14.8651 15.8495 15.2496C15.4651 15.634 14.9437 15.85 14.4 15.85C13.8563 15.85 13.3349 15.634 12.9504 15.2496C12.5696 14.8688 12.3541 14.3536 12.35 13.8155C12.3502 13.8053 12.3502 13.7951 12.35 13.785C12.354 13.2467 12.5695 12.7313 12.9504 12.3504ZM11.0237 12.7032C11.1952 12.1752 11.4898 11.6897 11.8897 11.2898C12.5555 10.624 13.4585 10.25 14.4 10.25C15.3415 10.25 16.2445 10.624 16.9102 11.2898C17.576 11.9555 17.95 12.8585 17.95 13.8C17.95 14.7415 17.576 15.6445 16.9102 16.3102C16.2445 16.976 15.3415 17.35 14.4 17.35C13.4585 17.35 12.5555 16.976 11.8897 16.3102C11.3379 15.7584 10.9865 15.0436 10.8824 14.2789L10.7381 14.2065L10.7379 14.2064C10.5088 14.0919 10.2562 14.0322 10 14.0322C9.74391 14.0322 9.49132 14.0918 9.26224 14.2064L9.26192 14.2065L9.11753 14.2789C9.07648 14.5805 8.99673 14.8761 8.87976 15.1585C8.70136 15.5892 8.43987 15.9806 8.11022 16.3102C7.78057 16.6399 7.38922 16.9014 6.95852 17.0798C6.52781 17.2582 6.06618 17.35 5.59999 17.35C5.13379 17.35 4.67217 17.2582 4.24146 17.0798C3.81076 16.9014 3.41941 16.6399 3.08976 16.3102C2.76011 15.9806 2.49862 15.5892 2.32022 15.1585C2.14181 14.7278 2.04999 14.2662 2.04999 13.8C2.04999 12.8585 2.42401 11.9555 3.08976 11.2898C3.75551 10.624 4.65847 10.25 5.59999 10.25C6.54151 10.25 7.44446 10.624 8.11022 11.2898C8.51013 11.6897 8.80477 12.1752 8.97632 12.7032C9.30485 12.5903 9.65072 12.5322 10 12.5322C10.3493 12.5322 10.6951 12.5903 11.0237 12.7032ZM7.64996 13.7884C7.6469 13.2489 7.43127 12.7321 7.04956 12.3504C6.66511 11.966 6.14368 11.75 5.59999 11.75C5.05629 11.75 4.53487 11.966 4.15042 12.3504C3.76597 12.7349 3.54999 13.2563 3.54999 13.8C3.54999 14.0692 3.60301 14.3358 3.70603 14.5845C3.80906 14.8332 3.96006 15.0592 4.15042 15.2496C4.34078 15.4399 4.56677 15.5909 4.81549 15.694C5.06421 15.797 5.33078 15.85 5.59999 15.85C5.8692 15.85 6.13577 15.797 6.38449 15.694C6.63321 15.5909 6.8592 15.4399 7.04956 15.2496C7.23992 15.0592 7.39092 14.8332 7.49394 14.5845C7.59542 14.3395 7.64839 14.0772 7.64995 13.8121C7.64983 13.8042 7.64983 13.7963 7.64996 13.7884ZM17.25 7C18.4926 7 19.5 5.99264 19.5 4.75C19.5 3.50736 18.4926 2.5 17.25 2.5C16.0074 2.5 15 3.50736 15 4.75C15 5.99264 16.0074 7 17.25 7Z" fill="#5E5BF1"/>
</svg>
