<svg width="24" height="24" viewBox="0 0 24 24" fill="none" xmlns="http://www.w3.org/2000/svg">
<path d="M20.3334 11.9999H3.66675M20.3334 11.9999V16.9999C20.3334 17.4419 20.1578 17.8659 19.8453 18.1784C19.5327 18.491 19.1088 18.6666 18.6667 18.6666H5.33341C4.89139 18.6666 4.46746 18.491 4.1549 18.1784C3.84234 17.8659 3.66675 17.4419 3.66675 16.9999V11.9999M20.3334 11.9999L17.4584 6.25825C17.3204 5.98057 17.1077 5.74689 16.8442 5.58348C16.5807 5.42008 16.2768 5.33342 15.9667 5.33325H8.03341C7.72334 5.33342 7.41947 5.42008 7.15595 5.58348C6.89244 5.74689 6.67973 5.98057 6.54175 6.25825L3.66675 11.9999M7.00008 15.3333H7.00841M10.3334 15.3333H10.3417" stroke="#8E929B" stroke-width="1.5" stroke-linecap="round" stroke-linejoin="round"/>
</svg>
