<svg width="20" height="20" viewBox="0 0 20 20" fill="none" xmlns="http://www.w3.org/2000/svg">
<g id="icon/history">
<path id="Vector (Stroke)" fill-rule="evenodd" clip-rule="evenodd" d="M8.77117 2.14884C10.523 1.79979 12.3416 2.06901 13.9172 2.91062C15.4928 3.75223 16.7277 5.11415 17.4117 6.76429C18.0956 8.41442 18.1861 10.2507 17.6679 11.9601C17.1496 13.6695 16.0547 15.1463 14.5696 16.1389C13.0844 17.1314 11.3011 17.5783 9.52344 17.4033C7.74578 17.2283 6.0838 16.4423 4.82073 15.1792C4.54665 14.9051 4.54665 14.4607 4.82074 14.1866C5.09482 13.9126 5.5392 13.9126 5.81328 14.1866C6.8467 15.2201 8.2065 15.8632 9.66095 16.0064C11.1154 16.1495 12.5745 15.7839 13.7896 14.9718C15.0047 14.1598 15.9006 12.9515 16.3246 11.5528C16.7486 10.1542 16.6745 8.65184 16.115 7.30173C15.5554 5.95161 14.545 4.83732 13.2559 4.14873C11.9668 3.46014 10.4788 3.23987 9.04546 3.52546C7.61215 3.81104 6.32223 4.58482 5.3955 5.71491C4.46878 6.845 3.96261 8.26148 3.96324 9.72296L3.96324 11.2798C3.96324 11.6674 3.64902 11.9816 3.26141 11.9816C2.87379 11.9816 2.55957 11.6674 2.55957 11.2798L2.55957 9.72358C2.55957 9.72347 2.55957 9.72368 2.55957 9.72358C2.55886 7.93743 3.17751 6.20599 4.31011 4.82484C5.44277 3.44362 7.01935 2.4979 8.77117 2.14884Z" fill="white"/>
<path id="Vector (Stroke)_2" fill-rule="evenodd" clip-rule="evenodd" d="M9.50002 5.89905C9.88763 5.89905 10.2019 6.21327 10.2019 6.60088V9.79814H13.3991C13.7867 9.79814 14.1009 10.1124 14.1009 10.5C14.1009 10.8876 13.7867 11.2018 13.3991 11.2018H9.50002C9.11241 11.2018 8.79818 10.8876 8.79818 10.5V6.60088C8.79818 6.21327 9.11241 5.89905 9.50002 5.89905ZM1.20556 9.22388C1.47965 8.9498 1.92403 8.9498 2.19811 9.22388L3.26147 10.2872L4.32484 9.22388C4.59892 8.9498 5.0433 8.9498 5.31738 9.22388C5.59147 9.49797 5.59147 9.94235 5.31738 10.2164L3.75775 11.7761C3.48366 12.0502 3.03928 12.0502 2.7652 11.7761L1.20556 10.2164C0.931479 9.94235 0.931479 9.49797 1.20556 9.22388Z" fill="white"/>
</g>
</svg>
