<svg width="11" height="2" viewBox="0 0 11 2" fill="none" xmlns="http://www.w3.org/2000/svg">
<path d="M0.683594 1.99463C0.582031 1.99463 0.488932 1.96924 0.404297 1.91846C0.319661 1.86768 0.249837 1.79997 0.194824 1.71533C0.144043 1.62646 0.118652 1.52913 0.118652 1.42334C0.118652 1.32178 0.144043 1.22868 0.194824 1.14404C0.249837 1.05518 0.319661 0.985352 0.404297 0.93457C0.488932 0.883789 0.582031 0.858398 0.683594 0.858398H10.0273C10.1289 0.858398 10.222 0.883789 10.3066 0.93457C10.3955 0.985352 10.4653 1.05518 10.5161 1.14404C10.5669 1.22868 10.5923 1.32178 10.5923 1.42334C10.5923 1.52913 10.5669 1.62646 10.5161 1.71533C10.4653 1.79997 10.3955 1.86768 10.3066 1.91846C10.222 1.96924 10.1289 1.99463 10.0273 1.99463H0.683594Z" fill="white"/>
</svg>
