<svg width="24" height="24" viewBox="0 0 24 24" fill="none" xmlns="http://www.w3.org/2000/svg">
<path fill-rule="evenodd" clip-rule="evenodd" d="M15.1842 4.29267C14.6584 4.24997 14.032 4.24998 13.2974 4.25H13.2974H13.2974H13.252H10.748H10.7026H10.7026H10.7026C9.84122 4.24998 9.12867 4.24996 8.55261 4.3188C7.94645 4.39123 7.40878 4.54744 6.93549 4.91665L6.93504 4.91701C6.46193 5.28666 6.1798 5.77027 5.96243 6.34092C5.75552 6.88408 5.5826 7.57678 5.3735 8.41443L5.36361 8.45403L5.36353 8.45434L5.01448 9.85H4C3.58579 9.85 3.25 10.1858 3.25 10.6C3.25 11.0142 3.58579 11.35 4 11.35H5.58431C5.59518 11.3502 5.60602 11.3502 5.61682 11.35H18.0611C17.1096 11.1048 16.2734 10.5721 15.6509 9.85H6.56068L6.81879 8.81797L6.81887 8.81767C7.04127 7.92685 7.19335 7.32332 7.36417 6.87488C7.52774 6.44548 7.68037 6.23829 7.85838 6.09914C8.03626 5.96047 8.27418 5.86274 8.73059 5.8082C9.20723 5.75125 9.82975 5.75 10.748 5.75H13.252C13.7955 5.75 14.2354 5.75044 14.6028 5.76261C14.7143 5.23501 14.9134 4.73972 15.1842 4.29267ZM16.4 13.75C15.8563 13.75 15.3349 13.966 14.9504 14.3504C14.5695 14.7313 14.354 15.2467 14.35 15.785C14.3502 15.7951 14.3502 15.8053 14.35 15.8155C14.3541 16.3536 14.5696 16.8688 14.9504 17.2496C15.3349 17.634 15.8563 17.85 16.4 17.85C16.9437 17.85 17.4651 17.634 17.8495 17.2496C18.234 16.8651 18.45 16.3437 18.45 15.8C18.45 15.2563 18.234 14.7349 17.8495 14.3504C17.4651 13.966 16.9437 13.75 16.4 13.75ZM13.8897 13.2898C13.4898 13.6897 13.1952 14.1752 13.0237 14.7032C12.6951 14.5903 12.3493 14.5322 12 14.5322C11.6507 14.5322 11.3048 14.5903 10.9763 14.7032C10.8048 14.1752 10.5101 13.6897 10.1102 13.2898C9.44446 12.624 8.54151 12.25 7.59999 12.25C6.65847 12.25 5.75551 12.624 5.08976 13.2898C4.424 13.9555 4.04999 14.8585 4.04999 15.8C4.04999 16.2662 4.14181 16.7278 4.32022 17.1585C4.49862 17.5892 4.76011 17.9806 5.08976 18.3102C5.41941 18.6399 5.81076 18.9014 6.24146 19.0798C6.67217 19.2582 7.1338 19.35 7.59999 19.35C8.06618 19.35 8.52781 19.2582 8.95852 19.0798C9.38922 18.9014 9.78057 18.6399 10.1102 18.3102C10.4399 17.9806 10.7014 17.5892 10.8798 17.1585C10.9967 16.8761 11.0765 16.5805 11.1175 16.2789L11.2619 16.2065L11.2622 16.2064C11.4913 16.0918 11.7439 16.0322 12 16.0322C12.2562 16.0322 12.5088 16.0919 12.7379 16.2064L12.7381 16.2065L12.8824 16.2789C12.9865 17.0436 13.3379 17.7584 13.8897 18.3102C14.5555 18.976 15.4585 19.35 16.4 19.35C17.3415 19.35 18.2445 18.976 18.9102 18.3102C19.576 17.6445 19.95 16.7415 19.95 15.8C19.95 14.8585 19.576 13.9555 18.9102 13.2898C18.2445 12.624 17.3415 12.25 16.4 12.25C15.4585 12.25 14.5555 12.624 13.8897 13.2898ZM9.04956 14.3504C9.43127 14.7321 9.6469 15.2489 9.64996 15.7884C9.64983 15.7963 9.64983 15.8042 9.64995 15.8121C9.64839 16.0772 9.59542 16.3395 9.49394 16.5845C9.39092 16.8332 9.23992 17.0592 9.04956 17.2496C8.8592 17.4399 8.63321 17.5909 8.38449 17.694C8.13577 17.797 7.8692 17.85 7.59999 17.85C7.33078 17.85 7.06421 17.797 6.81549 17.694C6.56677 17.5909 6.34078 17.4399 6.15042 17.2496C5.96006 17.0592 5.80906 16.8332 5.70603 16.5845C5.60301 16.3358 5.54999 16.0692 5.54999 15.8C5.54999 15.2563 5.76597 14.7349 6.15042 14.3504C6.53487 13.966 7.05629 13.75 7.59999 13.75C8.14368 13.75 8.66511 13.966 9.04956 14.3504Z" fill="#79FF92"/>
<circle cx="19.25" cy="6.75" r="2.25" fill="#79FF92"/>
</svg>
