<svg width="30" height="30" viewBox="0 0 30 30" fill="none" xmlns="http://www.w3.org/2000/svg">
<g id="omni-icon-colour-blue-light">
<rect width="30" height="30" rx="7.05882" fill="#E6E5FF"/>
<g id="Group 798">
<rect id="Rectangle 1498" x="18.1848" y="9.87817" width="4.75627" height="2.37814" fill="#8B89FF"/>
<path id="omni" d="M7.48328 9.48178C7.48328 10.6072 8.35333 11.4636 9.46506 11.4636C10.5768 11.4636 11.4468 10.6072 11.4468 9.48178C11.4468 8.35632 10.5768 7.5 9.46506 7.5C8.35333 7.5 7.48328 8.35632 7.48328 9.48178Z" fill="#1612D3"/>
<path id="mouth" d="M9.60298 16.9502L10.1531 18.2147L10.1538 18.2161C10.1569 18.2227 10.1639 18.2376 10.1751 18.2598C10.1976 18.3044 10.2364 18.3781 10.2927 18.4739C10.4059 18.6662 10.587 18.9427 10.8451 19.2497C11.3617 19.8645 12.1674 20.5802 13.3405 21.0154C14.4959 21.4441 15.49 21.4778 16.1813 21.412C16.528 21.3789 16.7979 21.3208 16.9711 21.2749C17.0575 21.252 17.1192 21.2323 17.1534 21.2207C17.1672 21.216 17.1765 21.2127 17.1811 21.2109L18.4554 20.6925L19.5009 23.2625L18.216 23.7852L18.1549 23.809C18.1262 23.8197 18.0892 23.833 18.0443 23.8482C17.9546 23.8786 17.833 23.9167 17.6822 23.9567C17.381 24.0366 16.9606 24.1248 16.4443 24.174C15.4094 24.2725 13.986 24.2141 12.3755 23.6167C10.6468 22.9753 9.4657 21.9209 8.72098 21.0346C8.34829 20.5912 8.08007 20.1844 7.90159 19.8811C7.81213 19.7291 7.74451 19.6019 7.69701 19.5075C7.67323 19.4603 7.65443 19.4212 7.6404 19.3912L7.61227 19.3291L7.05884 18.0571L9.60298 16.9502Z" fill="#1612D3"/>
</g>
</g>
</svg>
