<svg width="20" height="20" viewBox="0 0 20 20" fill="none" xmlns="http://www.w3.org/2000/svg">
<g id="icon/circle-arrow-up">
<path id="Icon (Stroke)" fill-rule="evenodd" clip-rule="evenodd" d="M10 3.75C6.54822 3.75 3.75 6.54822 3.75 10C3.75 13.4518 6.54822 16.25 10 16.25C13.4518 16.25 16.25 13.4518 16.25 10C16.25 6.54822 13.4518 3.75 10 3.75ZM2.25 10C2.25 5.71979 5.71979 2.25 10 2.25C14.2802 2.25 17.75 5.71979 17.75 10C17.75 14.2802 14.2802 17.75 10 17.75C5.71979 17.75 2.25 14.2802 2.25 10ZM10 5.82823L13.6414 9.46967C13.9343 9.76256 13.9343 10.2374 13.6414 10.5303C13.3485 10.8232 12.8737 10.8232 12.5808 10.5303L10.75 8.69955V13.8889C10.75 14.3031 10.4142 14.6389 10 14.6389C9.58579 14.6389 9.25 14.3031 9.25 13.8889V8.69955L7.41922 10.5303C7.12633 10.8232 6.65145 10.8232 6.35856 10.5303C6.06567 10.2374 6.06567 9.76256 6.35856 9.46967L10 5.82823Z" fill="white"/>
</g>
</svg>
