<svg width="16" height="16" viewBox="0 0 16 16" fill="none" xmlns="http://www.w3.org/2000/svg">
<path fill-rule="evenodd" clip-rule="evenodd" d="M0.466149 2.09929C0.0588379 2.89868 0.0588379 3.94515 0.0588379 6.03808V9.96195C0.0588379 12.0549 0.0588379 13.1013 0.466149 13.9007C0.82443 14.6039 1.39612 15.1756 2.09929 15.5339C2.89868 15.9412 3.94515 15.9412 6.03808 15.9412H9.96195C12.0549 15.9412 13.1013 15.9412 13.9007 15.5339C14.6039 15.1756 15.1756 14.6039 15.5339 13.9007C15.9412 13.1013 15.9412 12.0549 15.9412 9.96195V6.03808C15.9412 3.94515 15.9412 2.89868 15.5339 2.09929C15.1756 1.39612 14.6039 0.82443 13.9007 0.466149C13.1013 0.0588379 12.0549 0.0588379 9.96195 0.0588379H6.03808C3.94515 0.0588379 2.89868 0.0588379 2.09929 0.466149C1.39612 0.82443 0.82443 1.39612 0.466149 2.09929ZM12.2042 5.28843H9.68614V6.54745H12.2042V5.28843ZM4.02058 5.0786C4.02058 5.67443 4.48119 6.12778 5.06976 6.12778C5.65832 6.12778 6.11894 5.67443 6.11894 5.0786C6.11894 4.48277 5.65832 4.02943 5.06976 4.02943C4.48119 4.02943 4.02058 4.48277 4.02058 5.0786ZM5.43401 9.70195L5.14276 9.03251L3.79586 9.6185L4.08886 10.2919L4.10375 10.3248C4.11118 10.3407 4.12113 10.3614 4.13372 10.3864C4.15886 10.4363 4.19466 10.5037 4.24203 10.5842C4.33652 10.7447 4.47851 10.9601 4.67582 11.1949C5.07008 11.664 5.69539 12.2223 6.61054 12.5618C7.46316 12.8781 8.21677 12.909 8.76465 12.8569C9.03799 12.8308 9.26051 12.7841 9.41998 12.7418C9.49982 12.7207 9.56422 12.7005 9.61171 12.6844C9.63546 12.6764 9.65503 12.6693 9.67022 12.6636L9.70258 12.6511L10.3829 12.3743L9.82933 11.0137L9.15472 11.2882C9.15225 11.2891 9.14734 11.2909 9.14006 11.2933C9.12192 11.2995 9.08929 11.3099 9.04355 11.322C8.95184 11.3464 8.80896 11.3771 8.62538 11.3946C8.25943 11.4295 7.73313 11.4116 7.12145 11.1847C6.5004 10.9543 6.07386 10.5754 5.80033 10.2499C5.66374 10.0873 5.56785 9.94099 5.50793 9.83917C5.47809 9.78847 5.45755 9.74946 5.44566 9.72585C5.43973 9.71406 5.43599 9.70619 5.43436 9.7027L5.43401 9.70195Z" fill="#54565C"/>
</svg>
