<svg width="26" height="26" viewBox="0 0 26 26" fill="none" xmlns="http://www.w3.org/2000/svg">
<path fill-rule="evenodd" clip-rule="evenodd" d="M13 4.87505C8.51267 4.87505 4.87499 8.51274 4.87499 13C4.87499 17.4874 8.51267 21.125 13 21.125C17.4873 21.125 21.125 17.4874 21.125 13C21.125 8.51274 17.4873 4.87505 13 4.87505ZM2.92499 13C2.92499 7.43578 7.43572 2.92505 13 2.92505C18.5643 2.92505 23.075 7.43578 23.075 13C23.075 18.5643 18.5643 23.0751 13 23.0751C7.43572 23.0751 2.92499 18.5643 2.92499 13ZM13 7.57675L17.7339 12.3106C18.1146 12.6914 18.1146 13.3087 17.7339 13.6895C17.3531 14.0702 16.7358 14.0702 16.355 13.6895L13.975 11.3095V18.0556C13.975 18.5941 13.5385 19.0306 13 19.0306C12.4615 19.0306 12.025 18.5941 12.025 18.0556V11.3095L9.64497 13.6895C9.26421 14.0702 8.64688 14.0702 8.26611 13.6895C7.88535 13.3087 7.88535 12.6914 8.26611 12.3106L13 7.57675Z" fill="#5753FF"/>
</svg>
