<svg width="22" height="22" viewBox="0 0 22 22" fill="none" xmlns="http://www.w3.org/2000/svg">
<path d="M11 2.70833C6.42062 2.70833 2.70831 6.42064 2.70831 11C2.70831 15.5794 6.42062 19.2917 11 19.2917C15.5793 19.2917 19.2916 15.5794 19.2916 11C19.2916 6.42064 15.5793 2.70833 11 2.70833ZM2.33331 11C2.33331 6.21353 6.21351 2.33333 11 2.33333C15.7864 2.33333 19.6666 6.21353 19.6666 11C19.6666 15.7865 15.7864 19.6667 11 19.6667C6.21351 19.6667 2.33331 15.7865 2.33331 11ZM9.20831 9.625C9.20831 9.39488 9.39486 9.20833 9.62498 9.20833H12.375C12.6051 9.20833 12.7916 9.39488 12.7916 9.625V12.375C12.7916 12.6051 12.6051 12.7917 12.375 12.7917H9.62498C9.39486 12.7917 9.20831 12.6051 9.20831 12.375V9.625Z" fill="#FF2525" stroke="#FF2525"/>
</svg>
