<svg width="20" height="20" viewBox="0 0 20 20" fill="none" xmlns="http://www.w3.org/2000/svg">
<path fill-rule="evenodd" clip-rule="evenodd" d="M5.85838 4.09914C6.03626 3.96047 6.27418 3.86274 6.73059 3.8082C7.20723 3.75125 7.82975 3.75 8.748 3.75H11.252C12.1702 3.75 12.7928 3.75125 13.2694 3.8082C13.7259 3.86275 13.9638 3.9605 14.1417 4.09921C14.3196 4.23825 14.472 4.4453 14.6355 4.87476C14.8063 5.32338 14.9583 5.92692 15.1812 6.81798L15.4393 7.85H4.56068L4.81879 6.81797L4.81887 6.81767C5.04127 5.92685 5.19335 5.32332 5.36417 4.87488C5.52774 4.44548 5.68037 4.23829 5.85838 4.09914ZM16.6364 6.45403L16.9855 7.85H18C18.4142 7.85 18.75 8.18579 18.75 8.6C18.75 9.01422 18.4142 9.35 18 9.35H16.4157C16.4048 9.35024 16.394 9.35024 16.3832 9.35H3.61682C3.60602 9.35024 3.59518 9.35024 3.58431 9.35H2C1.58579 9.35 1.25 9.01422 1.25 8.6C1.25 8.18579 1.58579 7.85 2 7.85H3.01448L3.36353 6.45434L3.36361 6.45403L3.3735 6.41444C3.5826 5.57678 3.75552 4.88408 3.96243 4.34092C4.1798 3.77027 4.46193 3.28666 4.93504 2.91701L4.93549 2.91665C5.40878 2.54744 5.94645 2.39123 6.55261 2.3188C7.12867 2.24996 7.84123 2.24998 8.70258 2.25H8.7026H8.748H11.252H11.2974H11.2974C12.1588 2.24998 12.8713 2.24996 13.4474 2.3188C14.0535 2.39123 14.5912 2.54744 15.0645 2.91665L15.065 2.91701C15.5382 3.28677 15.8201 3.77052 16.0373 4.34105C16.2432 4.88184 16.4156 5.57113 16.6239 6.40402L16.6239 6.40408L16.6239 6.40412L16.6364 6.45402L16.6364 6.45403ZM12.9504 12.3504C13.3349 11.966 13.8563 11.75 14.4 11.75C14.9437 11.75 15.4651 11.966 15.8495 12.3504C16.234 12.7349 16.45 13.2563 16.45 13.8C16.45 14.3437 16.234 14.8651 15.8495 15.2496C15.4651 15.634 14.9437 15.85 14.4 15.85C13.8563 15.85 13.3349 15.634 12.9504 15.2496C12.5696 14.8688 12.3541 14.3536 12.35 13.8155C12.3502 13.8053 12.3502 13.7951 12.35 13.785C12.354 13.2467 12.5695 12.7313 12.9504 12.3504ZM11.0237 12.7032C11.1952 12.1752 11.4898 11.6897 11.8897 11.2898C12.5555 10.624 13.4585 10.25 14.4 10.25C15.3415 10.25 16.2445 10.624 16.9102 11.2898C17.576 11.9555 17.95 12.8585 17.95 13.8C17.95 14.7415 17.576 15.6445 16.9102 16.3102C16.2445 16.976 15.3415 17.35 14.4 17.35C13.4585 17.35 12.5555 16.976 11.8897 16.3102C11.3379 15.7584 10.9865 15.0436 10.8824 14.2789L10.7381 14.2065L10.7379 14.2064C10.5088 14.0919 10.2562 14.0322 10 14.0322C9.74391 14.0322 9.49132 14.0918 9.26224 14.2064L9.26192 14.2065L9.1176 14.2789C9.07654 14.5805 8.99679 14.8761 8.87982 15.1585C8.70142 15.5892 8.43993 15.9806 8.11028 16.3102C7.78063 16.6399 7.38928 16.9014 6.95858 17.0798C6.52787 17.2582 6.06624 17.35 5.60005 17.35C5.13386 17.35 4.67223 17.2582 4.24152 17.0798C3.81082 16.9014 3.41947 16.6399 3.08982 16.3102C2.76017 15.9806 2.49868 15.5892 2.32028 15.1585C2.14187 14.7278 2.05005 14.2662 2.05005 13.8C2.05005 12.8585 2.42407 11.9555 3.08982 11.2898C3.75557 10.624 4.65853 10.25 5.60005 10.25C6.54157 10.25 7.44452 10.624 8.11028 11.2898C8.51019 11.6897 8.80483 12.1752 8.97637 12.7032C9.30489 12.5903 9.65074 12.5322 10 12.5322C10.3493 12.5322 10.6951 12.5903 11.0237 12.7032ZM7.65 13.7858C7.64629 13.2473 7.43073 12.7315 7.04962 12.3504C6.66517 11.966 6.14374 11.75 5.60005 11.75C5.05636 11.75 4.53493 11.966 4.15048 12.3504C3.76603 12.7349 3.55005 13.2563 3.55005 13.8C3.55005 14.0692 3.60307 14.3358 3.7061 14.5845C3.80912 14.8332 3.96012 15.0592 4.15048 15.2496C4.34084 15.4399 4.56683 15.5909 4.81555 15.694C5.06427 15.797 5.33084 15.85 5.60005 15.85C5.86926 15.85 6.13583 15.797 6.38455 15.694C6.63327 15.5909 6.85926 15.4399 7.04962 15.2496C7.23998 15.0592 7.39098 14.8332 7.494 14.5845C7.59516 14.3403 7.64811 14.0789 7.65 13.8146C7.64981 13.805 7.64982 13.7954 7.65 13.7858Z" fill="#C1C5CE"/>
</svg>
