<svg width="16" height="16" viewBox="0 0 16 16" fill="none" xmlns="http://www.w3.org/2000/svg">
<path d="M4.31216 16C4.10405 16 3.94434 15.928 3.83303 15.7841C3.72172 15.6402 3.66606 15.4474 3.66606 15.2058V12.9619H3.32486C2.60375 12.9619 1.99637 12.8257 1.50272 12.5533C1.00907 12.2808 0.633999 11.8824 0.377495 11.3581C0.125832 10.8337 0 10.1937 0 9.43807V3.53157C0 2.7759 0.125832 2.1359 0.377495 1.61157C0.633999 1.08723 1.00907 0.688835 1.50272 0.416386C1.99637 0.138795 2.60375 0 3.32486 0H12.6751C13.3962 0 14.0036 0.138795 14.4973 0.416386C14.9909 0.688835 15.3636 1.08723 15.6152 1.61157C15.8717 2.1359 16 2.7759 16 3.53157V9.43807C16 10.1937 15.8717 10.8337 15.6152 11.3581C15.3636 11.8824 14.9909 12.2808 14.4973 12.5533C14.0036 12.8257 13.3962 12.9619 12.6751 12.9619H7.7677L5.14701 15.5065C4.97278 15.6761 4.82517 15.7995 4.70417 15.8766C4.58802 15.9589 4.45735 16 4.31216 16ZM4.14519 4.28723H11.7604C11.8814 4.28723 11.9831 4.24353 12.0653 4.15614C12.1525 4.06361 12.196 3.95309 12.196 3.82458C12.196 3.69606 12.1525 3.58811 12.0653 3.50072C11.9831 3.41333 11.8814 3.36964 11.7604 3.36964H4.14519C4.0242 3.36964 3.92015 3.41333 3.83303 3.50072C3.75076 3.58811 3.70962 3.69606 3.70962 3.82458C3.70962 3.95309 3.75076 4.06361 3.83303 4.15614C3.92015 4.24353 4.0242 4.28723 4.14519 4.28723ZM4.14519 6.87036H11.7604C11.8814 6.87036 11.9831 6.82667 12.0653 6.73928C12.1525 6.65189 12.196 6.54137 12.196 6.40771C12.196 6.28434 12.1525 6.17639 12.0653 6.08386C11.9831 5.99133 11.8814 5.94506 11.7604 5.94506H4.14519C4.0242 5.94506 3.92015 5.99133 3.83303 6.08386C3.75076 6.17639 3.70962 6.28434 3.70962 6.40771C3.70962 6.54137 3.75076 6.65189 3.83303 6.73928C3.92015 6.82667 4.0242 6.87036 4.14519 6.87036ZM4.14519 9.46121H9.09619C9.21718 9.46121 9.31881 9.41751 9.40109 9.33012C9.4882 9.24273 9.53176 9.13478 9.53176 9.00627C9.53176 8.87261 9.4882 8.76209 9.40109 8.6747C9.31881 8.58217 9.21718 8.5359 9.09619 8.5359H4.14519C4.0242 8.5359 3.92015 8.58217 3.83303 8.6747C3.75076 8.76209 3.70962 8.87261 3.70962 9.00627C3.70962 9.13478 3.75076 9.24273 3.83303 9.33012C3.92015 9.41751 4.0242 9.46121 4.14519 9.46121Z" fill="#C1C5CE"/>
</svg>
