<svg width="16" height="16" viewBox="0 0 16 16" fill="none" xmlns="http://www.w3.org/2000/svg">
<rect x="10.5" y="10.5" width="5" height="5" rx="2.5" fill="#FFA02C" stroke="#FFA02C"/>
<path d="M2.13379 5.86621C3.31193 5.86654 4.2666 6.8222 4.2666 8C4.2666 10.0619 5.93813 11.7334 8 11.7334C8.05466 11.7334 8.10899 11.7308 8.16309 11.7285C8.0784 12.0516 8.02503 12.3873 8.00684 12.7324C8.00456 12.7324 8.00228 12.7334 8 12.7334C5.38585 12.7334 3.2666 10.6141 3.2666 8C3.2666 7.41296 2.82043 6.93007 2.24902 6.87207L2.13379 6.86621C1.50786 6.86621 1 7.37407 1 8C1 11.866 4.134 15 8 15C8.13805 15 8.27506 14.9942 8.41113 14.9863C8.5582 15.3256 8.74187 15.6451 8.95703 15.9404C8.64313 15.9779 8.32398 16 8 16C3.58172 16 0 12.4182 0 8C0 6.82179 0.955577 5.86621 2.13379 5.86621ZM8 0C12.4182 0 16 3.58172 16 8C16 8.32398 15.9779 8.64313 15.9404 8.95703C15.6451 8.74187 15.3256 8.5582 14.9863 8.41113C14.9942 8.27506 15 8.13805 15 8C15 4.134 11.866 1 8 1C7.37407 1 6.86621 1.50786 6.86621 2.13379L6.87207 2.24902C6.93007 2.82043 7.41296 3.2666 8 3.2666C10.6141 3.2666 12.7334 5.38585 12.7334 8C12.7334 8.00228 12.7324 8.00456 12.7324 8.00684C12.3873 8.02503 12.0516 8.0784 11.7285 8.16309C11.7308 8.10899 11.7334 8.05466 11.7334 8C11.7334 5.93813 10.0619 4.2666 8 4.2666C6.8222 4.2666 5.86654 3.31193 5.86621 2.13379C5.86621 0.955577 6.82179 0 8 0Z" fill="white"/>
</svg>
