<svg width="20" height="20" viewBox="0 0 20 20" fill="none" xmlns="http://www.w3.org/2000/svg">
<g id="icon/arrows-up-down">
<path id="Vector" d="M9.11879 6.63229C9.18218 6.57319 9.23247 6.50301 9.26678 6.42576C9.30109 6.34851 9.31875 6.26571 9.31875 6.18209C9.31875 6.09847 9.30109 6.01567 9.26678 5.93842C9.23247 5.86117 9.18218 5.79099 9.11879 5.7319L6.39166 3.18662C6.32834 3.12746 6.25315 3.08053 6.17038 3.0485C6.08761 3.01648 5.99889 3 5.9093 3C5.8197 3 5.73098 3.01648 5.64822 3.0485C5.56545 3.08053 5.49025 3.12746 5.42694 3.18662L2.6998 5.7319C2.63646 5.79102 2.58621 5.8612 2.55193 5.93845C2.51764 6.01569 2.5 6.09848 2.5 6.18209C2.5 6.2657 2.51764 6.34849 2.55193 6.42573C2.58621 6.50298 2.63646 6.57317 2.6998 6.63229C2.82773 6.75169 3.00124 6.81876 3.18216 6.81876C3.27175 6.81876 3.36045 6.80229 3.44322 6.7703C3.52598 6.7383 3.60118 6.69141 3.66452 6.63229L5.22751 5.17273V16.3632C5.22751 16.5319 5.29934 16.6938 5.4272 16.8131C5.55506 16.9325 5.72848 16.9995 5.9093 16.9995C6.09012 16.9995 6.26353 16.9325 6.39139 16.8131C6.51925 16.6938 6.59108 16.5319 6.59108 16.3632V5.17273L8.15407 6.63229C8.21739 6.69145 8.29258 6.73838 8.37535 6.77041C8.45812 6.80243 8.54684 6.81891 8.63643 6.81891C8.72603 6.81891 8.81475 6.80243 8.89751 6.77041C8.98028 6.73838 9.05548 6.69145 9.11879 6.63229ZM17.3002 14.2681L14.5731 16.8134C14.5097 16.8725 14.4346 16.9195 14.3518 16.9515C14.269 16.9835 14.1803 17 14.0907 17C14.0011 17 13.9124 16.9835 13.8296 16.9515C13.7469 16.9195 13.6717 16.8725 13.6083 16.8134L10.8812 14.2681C10.7533 14.1487 10.6814 13.9868 10.6814 13.8179C10.6814 13.6491 10.7533 13.4871 10.8812 13.3677C11.0091 13.2483 11.1826 13.1812 11.3636 13.1812C11.5445 13.1812 11.718 13.2483 11.8459 13.3677L13.4089 14.8273V3.63682C13.4089 3.46806 13.4807 3.30621 13.6086 3.18687C13.7365 3.06754 13.9099 3.0005 14.0907 3.0005C14.2715 3.0005 14.4449 3.06754 14.5728 3.18687C14.7007 3.30621 14.7725 3.46806 14.7725 3.63682V14.8273L16.3355 13.3677C16.4634 13.2483 16.6369 13.1812 16.8178 13.1812C16.9988 13.1812 17.1723 13.2483 17.3002 13.3677C17.4281 13.4871 17.5 13.6491 17.5 13.8179C17.5 13.9868 17.4281 14.1487 17.3002 14.2681Z" fill="white"/>
</g>
</svg>
