<svg width="16" height="16" viewBox="0 0 16 16" fill="none" xmlns="http://www.w3.org/2000/svg">
<path d="M7.9375 0.25C12.1832 0.25 15.625 3.69181 15.625 7.9375C15.625 12.1832 12.1832 15.625 7.9375 15.625C3.69181 15.625 0.25 12.1832 0.25 7.9375C0.25 3.69181 3.69181 0.25 7.9375 0.25ZM7.9375 1.75C4.52024 1.75 1.75 4.52024 1.75 7.9375C1.75 11.3548 4.52024 14.125 7.9375 14.125C11.3548 14.125 14.125 11.3548 14.125 7.9375C14.125 4.52024 11.3548 1.75 7.9375 1.75ZM9.65723 5.15723C9.95012 4.86433 10.4249 4.86433 10.7178 5.15723C11.0107 5.45012 11.0107 5.92488 10.7178 6.21777L8.99805 7.9375L10.7178 9.65723L10.7695 9.71387C11.0098 10.0084 10.9924 10.4432 10.7178 10.7178C10.4432 10.9924 10.0084 11.0098 9.71387 10.7695L9.65723 10.7178L7.9375 8.99805L6.21777 10.7178C5.92488 11.0107 5.45012 11.0107 5.15723 10.7178C4.86433 10.4249 4.86433 9.95012 5.15723 9.65723L6.87695 7.9375L5.15723 6.21777L5.10547 6.16113C4.86516 5.86655 4.88262 5.43183 5.15723 5.15723C5.43183 4.88262 5.86655 4.86516 6.16113 5.10547L6.21777 5.15723L7.9375 6.87695L9.65723 5.15723Z" fill="#D9D9D9"/>
</svg>
