<svg width="20" height="20" viewBox="0 0 20 20" fill="none" xmlns="http://www.w3.org/2000/svg">
<g id="icon/delete-key">
<path id="Vector (Stroke)" fill-rule="evenodd" clip-rule="evenodd" d="M6.96975 3.63636C7.1104 3.4957 7.30117 3.41669 7.50008 3.41669H16.6667C17.3077 3.41669 17.9224 3.6713 18.3756 4.12451C18.8288 4.57772 19.0834 5.19241 19.0834 5.83335V14.1667C19.0834 14.8076 18.8288 15.4223 18.3756 15.8755C17.9224 16.3287 17.3077 16.5834 16.6667 16.5834H7.50008C7.30117 16.5834 7.1104 16.5043 6.96975 16.3637L1.13642 10.5304C0.843525 10.2375 0.843525 9.76258 1.13642 9.46969L6.96975 3.63636ZM7.81074 4.91669L2.72741 10L7.81074 15.0834H16.6667C16.9099 15.0834 17.143 14.9868 17.3149 14.8149C17.4868 14.643 17.5834 14.4098 17.5834 14.1667V5.83335C17.5834 5.59024 17.4868 5.35708 17.3149 5.18517C17.143 5.01326 16.9099 4.91669 16.6667 4.91669H7.81074ZM9.46975 6.96969C9.76264 6.6768 10.2375 6.6768 10.5304 6.96969L12.5001 8.93936L14.4698 6.96969C14.7626 6.6768 15.2375 6.6768 15.5304 6.96969C15.8233 7.26258 15.8233 7.73746 15.5304 8.03035L13.5607 10L15.5304 11.9697C15.8233 12.2626 15.8233 12.7375 15.5304 13.0304C15.2375 13.3232 14.7626 13.3232 14.4698 13.0304L12.5001 11.0607L10.5304 13.0304C10.2375 13.3232 9.76264 13.3232 9.46975 13.0304C9.17686 12.7375 9.17686 12.2626 9.46975 11.9697L11.4394 10L9.46975 8.03035C9.17686 7.73746 9.17686 7.26258 9.46975 6.96969Z" fill="white"/>
</g>
</svg>
