<svg width="20" height="20" viewBox="0 0 20 20" fill="none" xmlns="http://www.w3.org/2000/svg">
<g id="icon/circle-plus">
<path id="Icon (Stroke)" fill-rule="evenodd" clip-rule="evenodd" d="M10 3.75C6.54822 3.75 3.75 6.54822 3.75 10C3.75 13.4518 6.54822 16.25 10 16.25C13.4518 16.25 16.25 13.4518 16.25 10C16.25 6.54822 13.4518 3.75 10 3.75ZM2.25 10C2.25 5.71979 5.71979 2.25 10 2.25C14.2802 2.25 17.75 5.71979 17.75 10C17.75 14.2802 14.2802 17.75 10 17.75C5.71979 17.75 2.25 14.2802 2.25 10ZM10 6.13924C10.4142 6.13924 10.75 6.47503 10.75 6.88924V9.25024L13.1111 9.25017C13.5253 9.25016 13.8611 9.58594 13.8611 10.0002C13.8611 10.4144 13.5254 10.7502 13.1111 10.7502L10.75 10.7502V13.1114C10.75 13.5256 10.4142 13.8614 10 13.8614C9.58579 13.8614 9.25 13.5256 9.25 13.1114V10.7503L6.88891 10.7504C6.4747 10.7504 6.1389 10.4146 6.13889 10.0004C6.13888 9.58616 6.47465 9.25036 6.88887 9.25035L9.25 9.25028V6.88924C9.25 6.47503 9.58579 6.13924 10 6.13924Z" fill="white"/>
</g>
</svg>
