<svg width="23" height="22" viewBox="0 0 23 22" fill="none" xmlns="http://www.w3.org/2000/svg">
<path fill-rule="evenodd" clip-rule="evenodd" d="M19.7843 11.9183C19.7647 12.1938 19.9562 12.4447 20.23 12.4804L20.8189 12.5572C21.0927 12.5929 21.3449 12.4 21.3671 12.1247C21.3889 11.8542 21.3999 11.581 21.3999 11.3055C21.3999 11.03 21.3889 10.7567 21.3671 10.4862C21.3449 10.211 21.0927 10.018 20.8189 10.0537L20.23 10.1305C19.9562 10.1663 19.7647 10.4172 19.7843 10.6926C19.7987 10.895 19.8061 11.0994 19.8061 11.3055C19.8061 11.5116 19.7987 11.7159 19.7843 11.9183ZM19.6229 7.86001C19.3678 7.96579 19.0766 7.84398 18.956 7.5956C18.7767 7.22655 18.5715 6.87242 18.3427 6.53558C18.1876 6.30714 18.2273 5.99402 18.4463 5.82576L18.9172 5.4639C19.1361 5.29564 19.4512 5.33606 19.6084 5.56306C19.919 6.01143 20.1944 6.48644 20.4304 6.98409C20.5487 7.23359 20.4266 7.52675 20.1715 7.63252L19.6229 7.86001ZM16.7852 4.16462C16.6169 4.38357 16.3038 4.42334 16.0753 4.2682C15.7385 4.03944 15.3844 3.83424 15.0153 3.65495C14.7669 3.53428 14.6451 3.24309 14.7509 2.98801L14.9784 2.43944C15.0842 2.18436 15.3773 2.06218 15.6268 2.18052C16.1245 2.41654 16.5995 2.69192 17.0479 3.00251C17.2749 3.15976 17.3153 3.47477 17.147 3.69373L16.7852 4.16462ZM12.4804 2.38089C12.4447 2.65471 12.1937 2.84622 11.9183 2.82659C11.7159 2.81217 11.5115 2.80484 11.3054 2.80484C11.0994 2.80484 10.895 2.81217 10.6926 2.82659C10.4171 2.84622 10.1662 2.65471 10.1305 2.38089L10.0537 1.79201C10.018 1.51819 10.211 1.26597 10.4862 1.24382C10.7567 1.22205 11.0299 1.21097 11.3054 1.21097C11.5809 1.21097 11.8542 1.22205 12.1247 1.24382C12.3999 1.26597 12.5929 1.51819 12.5572 1.79201L12.4804 2.38089ZM7.85997 2.98801C7.96575 3.24309 7.84395 3.53428 7.59557 3.65495C7.22652 3.83424 6.87239 4.03945 6.53555 4.2682C6.30711 4.42334 5.99399 4.38357 5.82573 4.16462L5.46387 3.69373C5.2956 3.47477 5.33602 3.15976 5.56302 3.00251C6.0114 2.69192 6.48641 2.41654 6.98405 2.18052C7.23356 2.06218 7.52671 2.18436 7.63249 2.43944L7.85997 2.98801ZM4.16458 5.82576C4.38354 5.99402 4.42331 6.30714 4.26817 6.53558C4.03941 6.87242 3.8342 7.22655 3.65491 7.5956C3.53424 7.84398 3.24306 7.96579 2.98798 7.86001L2.4394 7.63252C2.18432 7.52675 2.06215 7.23359 2.18048 6.98409C2.41651 6.48644 2.69188 6.01143 3.00248 5.56306C3.15972 5.33606 3.47473 5.29564 3.69369 5.4639L4.16458 5.82576ZM2.82656 10.6926C2.84618 10.4172 2.65468 10.1663 2.38086 10.1305L1.79198 10.0537C1.51815 10.018 1.26594 10.211 1.24378 10.4862C1.22201 10.7567 1.21094 11.03 1.21094 11.3055C1.21094 11.581 1.22201 11.8542 1.24378 12.1247C1.26594 12.4 1.51815 12.5929 1.79198 12.5572L2.38086 12.4804C2.65468 12.4447 2.84618 12.1938 2.82656 11.9183C2.81214 11.7159 2.80481 11.5116 2.80481 11.3055C2.80481 11.0994 2.81214 10.895 2.82656 10.6926ZM2.98798 14.7509C3.24306 14.6452 3.53424 14.767 3.65491 15.0153C3.8342 15.3844 4.03941 15.7385 4.26817 16.0754C4.42331 16.3038 4.38354 16.6169 4.16458 16.7852L3.69369 17.147C3.47473 17.3153 3.15972 17.2749 3.00248 17.0479C2.69188 16.5995 2.41651 16.1245 2.18048 15.6269C2.06215 15.3774 2.18432 15.0842 2.4394 14.9784L2.98798 14.7509ZM5.82573 18.4463C5.99399 18.2274 6.3071 18.1876 6.53555 18.3427C6.87239 18.5715 7.22652 18.7767 7.59557 18.956C7.84395 19.0767 7.96575 19.3679 7.85997 19.6229L7.63249 20.1715C7.52671 20.4266 7.23356 20.5488 6.98405 20.4304C6.48641 20.1944 6.0114 19.919 5.56302 19.6084C5.33602 19.4512 5.2956 19.1362 5.46387 18.9172L5.82573 18.4463ZM10.1305 20.2301C10.1662 19.9562 10.4171 19.7647 10.6926 19.7844C10.895 19.7988 11.0994 19.8061 11.3054 19.8061C11.5115 19.8061 11.7159 19.7988 11.9183 19.7844C12.1937 19.7647 12.4447 19.9562 12.4804 20.2301L12.5572 20.8189C12.5929 21.0928 12.3999 21.345 12.1247 21.3671C11.8542 21.3889 11.581 21.4 11.3054 21.4C11.0299 21.4 10.7567 21.3889 10.4862 21.3671C10.211 21.345 10.018 21.0928 10.0537 20.8189L10.1305 20.2301ZM14.7509 19.6229C14.6451 19.3679 14.7669 19.0767 15.0153 18.956C15.3844 18.7767 15.7385 18.5715 16.0753 18.3427C16.3038 18.1876 16.6169 18.2274 16.7852 18.4463L17.147 18.9172C17.3153 19.1362 17.2749 19.4512 17.0479 19.6084C16.5995 19.919 16.1245 20.1944 15.6268 20.4304C15.3773 20.5488 15.0842 20.4266 14.9784 20.1715L14.7509 19.6229ZM18.4463 16.7852C18.2273 16.6169 18.1876 16.3038 18.3427 16.0754C18.5715 15.7385 18.7767 15.3844 18.956 15.0153C19.0766 14.767 19.3678 14.6452 19.6229 14.7509L20.1715 14.9784C20.4266 15.0842 20.5487 15.3774 20.4304 15.6269C20.1944 16.1245 19.919 16.5995 19.6084 17.0479C19.4512 17.2749 19.1361 17.3153 18.9172 17.147L18.4463 16.7852ZM16.3356 10.5729L11.3055 5.54277L6.27538 10.5729C5.87079 10.9775 5.87079 11.6334 6.27538 12.038C6.67996 12.4426 7.33593 12.4426 7.74052 12.038L10.2695 9.50908V16.6774C10.2695 17.2496 10.7333 17.7134 11.3055 17.7134C11.8777 17.7134 12.3415 17.2496 12.3415 16.6774V9.50908L14.8705 12.038C15.2751 12.4426 15.931 12.4426 16.3356 12.038C16.7402 11.6334 16.7402 10.9775 16.3356 10.5729Z" fill="#79FF92"/>
</svg>
