<svg width="20" height="20" viewBox="0 0 20 20" fill="none" xmlns="http://www.w3.org/2000/svg">
<g id="icon/command-key">
<path id="Vector" d="M14.4318 11.3636H12.7273V8.63636H14.4318C15.0386 8.63636 15.6318 8.45642 16.1364 8.11928C16.641 7.78215 17.0342 7.30296 17.2664 6.74232C17.4987 6.18169 17.5594 5.56478 17.441 4.96961C17.3227 4.37444 17.0304 3.82774 16.6013 3.39865C16.1723 2.96956 15.6256 2.67734 15.0304 2.55896C14.4352 2.44057 13.8183 2.50133 13.2577 2.73355C12.697 2.96578 12.2179 3.35903 11.8807 3.86359C11.5436 4.36815 11.3636 4.96135 11.3636 5.56818V7.27273H8.63636V5.56818C8.63636 4.96135 8.45642 4.36815 8.11928 3.86359C7.78215 3.35903 7.30296 2.96578 6.74232 2.73355C6.18169 2.50133 5.56478 2.44057 4.96961 2.55896C4.37444 2.67734 3.82774 2.96956 3.39865 3.39865C2.96956 3.82774 2.67734 4.37444 2.55896 4.96961C2.44057 5.56478 2.50133 6.18169 2.73355 6.74232C2.96578 7.30296 3.35903 7.78215 3.86359 8.11928C4.36815 8.45642 4.96135 8.63636 5.56818 8.63636H7.27273V11.3636H5.56818C4.96135 11.3636 4.36815 11.5436 3.86359 11.8807C3.35903 12.2179 2.96578 12.697 2.73355 13.2577C2.50133 13.8183 2.44057 14.4352 2.55896 15.0304C2.67734 15.6256 2.96956 16.1723 3.39865 16.6013C3.82774 17.0304 4.37444 17.3227 4.96961 17.441C5.56478 17.5594 6.18169 17.4987 6.74232 17.2664C7.30296 17.0342 7.78215 16.641 8.11928 16.1364C8.45642 15.6318 8.63636 15.0386 8.63636 14.4318V12.7273H11.3636V14.4318C11.3636 15.0386 11.5436 15.6318 11.8807 16.1364C12.2179 16.641 12.697 17.0342 13.2577 17.2664C13.8183 17.4987 14.4352 17.5594 15.0304 17.441C15.6256 17.3227 16.1723 17.0304 16.6013 16.6013C17.0304 16.1723 17.3227 15.6256 17.441 15.0304C17.5594 14.4352 17.4987 13.8183 17.2664 13.2577C17.0342 12.697 16.641 12.2179 16.1364 11.8807C15.6318 11.5436 15.0386 11.3636 14.4318 11.3636ZM12.7273 5.56818C12.7273 5.23106 12.8272 4.9015 13.0145 4.62119C13.2018 4.34088 13.4681 4.1224 13.7795 3.99339C14.091 3.86438 14.4337 3.83062 14.7644 3.89639C15.095 3.96216 15.3987 4.1245 15.6371 4.36289C15.8755 4.60127 16.0378 4.90499 16.1036 5.23564C16.1694 5.56629 16.1356 5.90902 16.0066 6.22048C15.8776 6.53195 15.6591 6.79816 15.3788 6.98546C15.0985 7.17276 14.7689 7.27273 14.4318 7.27273H12.7273V5.56818ZM3.86364 5.56818C3.86364 5.11611 4.04322 4.68255 4.36289 4.36289C4.68255 4.04322 5.11611 3.86364 5.56818 3.86364C6.02026 3.86364 6.45381 4.04322 6.77348 4.36289C7.09314 4.68255 7.27273 5.11611 7.27273 5.56818V7.27273H5.56818C5.11611 7.27273 4.68255 7.09314 4.36289 6.77348C4.04322 6.45381 3.86364 6.02026 3.86364 5.56818ZM7.27273 14.4318C7.27273 14.7689 7.17276 15.0985 6.98546 15.3788C6.79816 15.6591 6.53195 15.8776 6.22048 16.0066C5.90902 16.1356 5.56629 16.1694 5.23564 16.1036C4.90499 16.0378 4.60127 15.8755 4.36289 15.6371C4.1245 15.3987 3.96216 15.095 3.89639 14.7644C3.83062 14.4337 3.86438 14.091 3.99339 13.7795C4.1224 13.4681 4.34088 13.2018 4.62119 13.0145C4.9015 12.8272 5.23106 12.7273 5.56818 12.7273H7.27273V14.4318ZM8.63636 8.63636H11.3636V11.3636H8.63636V8.63636ZM14.4318 16.1364C13.9797 16.1364 13.5462 15.9568 13.2265 15.6371C12.9069 15.3174 12.7273 14.8839 12.7273 14.4318V12.7273H14.4318C14.8839 12.7273 15.3174 12.9069 15.6371 13.2265C15.9568 13.5462 16.1364 13.9797 16.1364 14.4318C16.1364 14.8839 15.9568 15.3174 15.6371 15.6371C15.3174 15.9568 14.8839 16.1364 14.4318 16.1364Z" fill="white"/>
</g>
</svg>
