<svg width="20" height="20" viewBox="0 0 20 20" fill="none" xmlns="http://www.w3.org/2000/svg">
<g id="icon/resize">
<path id="Vector" d="M11.25 9.375V16.25C11.25 16.4158 11.1842 16.5747 11.0669 16.6919C10.9497 16.8092 10.7908 16.875 10.625 16.875H3.75C3.58424 16.875 3.42527 16.8092 3.30806 16.6919C3.19085 16.5747 3.125 16.4158 3.125 16.25V9.375C3.125 9.20924 3.19085 9.05027 3.30806 8.93306C3.42527 8.81585 3.58424 8.75 3.75 8.75H10.625C10.7908 8.75 10.9497 8.81585 11.0669 8.93306C11.1842 9.05027 11.25 9.20924 11.25 9.375ZM16.25 13.75C16.0842 13.75 15.9253 13.8158 15.8081 13.9331C15.6908 14.0503 15.625 14.2092 15.625 14.375V15.625H13.75C13.5842 15.625 13.4253 15.6908 13.3081 15.8081C13.1908 15.9253 13.125 16.0842 13.125 16.25C13.125 16.4158 13.1908 16.5747 13.3081 16.6919C13.4253 16.8092 13.5842 16.875 13.75 16.875H15.625C15.9565 16.875 16.2745 16.7433 16.5089 16.5089C16.7433 16.2745 16.875 15.9565 16.875 15.625V14.375C16.875 14.2092 16.8092 14.0503 16.6919 13.9331C16.5747 13.8158 16.4158 13.75 16.25 13.75ZM16.25 8.125C16.0842 8.125 15.9253 8.19085 15.8081 8.30806C15.6908 8.42527 15.625 8.58424 15.625 8.75V11.25C15.625 11.4158 15.6908 11.5747 15.8081 11.6919C15.9253 11.8092 16.0842 11.875 16.25 11.875C16.4158 11.875 16.5747 11.8092 16.6919 11.6919C16.8092 11.5747 16.875 11.4158 16.875 11.25V8.75C16.875 8.58424 16.8092 8.42527 16.6919 8.30806C16.5747 8.19085 16.4158 8.125 16.25 8.125ZM15.625 3.125H14.375C14.2092 3.125 14.0503 3.19085 13.9331 3.30806C13.8158 3.42527 13.75 3.58424 13.75 3.75C13.75 3.91576 13.8158 4.07473 13.9331 4.19194C14.0503 4.30915 14.2092 4.375 14.375 4.375H15.625V5.625C15.625 5.79076 15.6908 5.94973 15.8081 6.06694C15.9253 6.18415 16.0842 6.25 16.25 6.25C16.4158 6.25 16.5747 6.18415 16.6919 6.06694C16.8092 5.94973 16.875 5.79076 16.875 5.625V4.375C16.875 4.04348 16.7433 3.72554 16.5089 3.49112C16.2745 3.2567 15.9565 3.125 15.625 3.125ZM11.25 3.125H8.75C8.58424 3.125 8.42527 3.19085 8.30806 3.30806C8.19085 3.42527 8.125 3.58424 8.125 3.75C8.125 3.91576 8.19085 4.07473 8.30806 4.19194C8.42527 4.30915 8.58424 4.375 8.75 4.375H11.25C11.4158 4.375 11.5747 4.30915 11.6919 4.19194C11.8092 4.07473 11.875 3.91576 11.875 3.75C11.875 3.58424 11.8092 3.42527 11.6919 3.30806C11.5747 3.19085 11.4158 3.125 11.25 3.125ZM3.75 6.875C3.91576 6.875 4.07473 6.80915 4.19194 6.69194C4.30915 6.57473 4.375 6.41576 4.375 6.25V4.375H5.625C5.79076 4.375 5.94973 4.30915 6.06694 4.19194C6.18415 4.07473 6.25 3.91576 6.25 3.75C6.25 3.58424 6.18415 3.42527 6.06694 3.30806C5.94973 3.19085 5.79076 3.125 5.625 3.125H4.375C4.04348 3.125 3.72554 3.2567 3.49112 3.49112C3.2567 3.72554 3.125 4.04348 3.125 4.375V6.25C3.125 6.41576 3.19085 6.57473 3.30806 6.69194C3.42527 6.80915 3.58424 6.875 3.75 6.875Z" fill="white"/>
</g>
</svg>
