<svg width="12" height="12" viewBox="0 0 12 12" fill="none" xmlns="http://www.w3.org/2000/svg">
<path d="M3.7612 11C3.58753 11 3.40841 10.9215 3.27273 10.7959L0.206242 7.88122C0.0759845 7.75563 0 7.57771 0 7.3998C0 7.22187 0.0759845 7.03872 0.206242 6.91314L3.27273 4.00366C3.40841 3.87284 3.58753 3.79958 3.7612 3.79958C4.1574 3.79958 4.41792 4.06646 4.41792 4.42753C4.41792 4.62638 4.3365 4.76766 4.2171 4.88802L2.94708 6.07588L2.05156 6.79801L3.29444 6.74569H9.91589C10.4424 6.74569 10.6649 6.53114 10.6649 6.01308V3.02512C10.6649 2.51753 10.4424 2.30298 9.91589 2.30298H6.9688C6.56717 2.30298 6.27952 2.00994 6.27952 1.64888C6.27952 1.28781 6.56717 1 6.9688 1H9.95931C11.3868 1 12 1.59132 12 2.96232V6.07588C12 7.44166 11.3868 8.04867 9.95931 8.04867H3.29444L2.05156 7.99634L2.94708 8.71848L4.2171 9.91157C4.3365 10.0267 4.41792 10.1732 4.41792 10.3668C4.41792 10.7331 4.1574 11 3.7612 11Z" fill="#8E929B"/>
</svg>
