<svg width="11" height="2" viewBox="0 0 11 2" fill="none" xmlns="http://www.w3.org/2000/svg">
<path d="M0.564942 1.13623C0.463379 1.13623 0.37028 1.11084 0.285645 1.06006C0.201009 1.00928 0.131185 0.941572 0.076172 0.856932C0.025391 0.768062 0 0.670732 0 0.564942C0 0.463382 0.025391 0.370282 0.076172 0.285642C0.131185 0.196782 0.201009 0.126954 0.285645 0.076172C0.37028 0.025391 0.463379 0 0.564942 0H9.90865C10.0102 0 10.1033 0.025391 10.1879 0.076172C10.2768 0.126954 10.3466 0.196782 10.3974 0.285642C10.4482 0.370282 10.4736 0.463382 10.4736 0.564942C10.4736 0.670732 10.4482 0.768062 10.3974 0.856932C10.3466 0.941572 10.2768 1.00928 10.1879 1.06006C10.1033 1.11084 10.0102 1.13623 9.90865 1.13623H0.564942Z" fill="white"/>
</svg>
