<svg width="20" height="20" viewBox="0 0 20 20" fill="none" xmlns="http://www.w3.org/2000/svg">
<path d="M15.1355 18.2778C14.1556 19.2277 13.0857 19.0777 12.0559 18.6278C10.966 18.1678 9.96614 18.1478 8.81628 18.6278C7.37646 19.2477 6.61656 19.0677 5.75667 18.2778C0.877283 13.2485 1.59719 5.58942 7.13649 5.30946C8.48632 5.37945 9.4262 6.04936 10.2161 6.10935C11.396 5.86939 12.5258 5.17947 13.7857 5.26946C15.2955 5.38945 16.4353 5.98937 17.1852 7.06923C14.0656 8.939 14.8055 13.0485 17.6652 14.1983C17.0952 15.6981 16.3553 17.188 15.1255 18.2878L15.1355 18.2778ZM10.1161 5.24946C9.96614 3.01975 11.7759 1.17998 13.8556 1C14.1456 3.57967 11.5159 5.49943 10.1161 5.24946Z" fill="white"/>
</svg>
