<svg width="20" height="20" viewBox="0 0 20 20" fill="none" xmlns="http://www.w3.org/2000/svg">
<g id="icon/grab-corner">
<path id="Union" fill-rule="evenodd" clip-rule="evenodd" d="M18.0001 3.59999C18.0001 4.48364 17.2837 5.19999 16.4001 5.19999C15.5164 5.19999 14.8001 4.48364 14.8001 3.59999C14.8001 2.71634 15.5164 2 16.4001 2C17.2837 2 18.0001 2.71634 18.0001 3.59999ZM10.0003 11.6C10.8839 11.6 11.6003 10.8837 11.6003 10C11.6003 9.11639 10.8839 8.40005 10.0003 8.40005C9.11662 8.40005 8.40028 9.11639 8.40028 10C8.40028 10.8837 9.11662 11.6 10.0003 11.6ZM5.19999 16.4C5.19999 17.2836 4.48364 18 3.59999 18C2.71634 18 2 17.2836 2 16.4C2 15.5163 2.71634 14.8 3.59999 14.8C4.48364 14.8 5.19999 15.5163 5.19999 16.4ZM11.6003 16.4C11.6003 17.2836 10.8839 18 10.0003 18C9.11662 18 8.40028 17.2836 8.40028 16.4C8.40028 15.5163 9.11662 14.8 10.0003 14.8C10.8839 14.8 11.6003 15.5163 11.6003 16.4ZM16.4001 18C17.2837 18 18.0001 17.2836 18.0001 16.4C18.0001 15.5163 17.2837 14.8 16.4001 14.8C15.5164 14.8 14.8001 15.5163 14.8001 16.4C14.8001 17.2836 15.5164 18 16.4001 18ZM18.0001 10C18.0001 10.8837 17.2837 11.6 16.4001 11.6C15.5164 11.6 14.8001 10.8837 14.8001 10C14.8001 9.11639 15.5164 8.40005 16.4001 8.40005C17.2837 8.40005 18.0001 9.11639 18.0001 10Z" fill="white"/>
</g>
</svg>
